<svg xmlns="http://www.w3.org/2000/svg" viewBox="0 0 480 480"><path d="m469.9 170.7c0.1-0.3 0.1-0.6 0.2-0.9l-0.5-0.1c-11.3-37.1-31.6-71.1-59.9-99.4-45.3-45.3-105.6-70.3-169.7-70.3s-124.4 25-169.7 70.3c-45.3 45.3-70.3 105.6-70.3 169.7s25 124.4 70.3 169.7 105.6 70.3 169.7 70.3 124.4-25 169.7-70.3 70.3-105.6 70.3-169.7c0-23.8-3.5-47.1-10.1-69.3zm-124.7-124c16.9 9.2 32.7 20.8 47 34.5-1.3 3.7-3.6 7.8-7.1 7.8-0.1 0-0.1 0-0.2 0-3-0.1-6.5-1.3-10.2-2.5-5.6-1.8-12-3.9-19.2-3.3-7.1 0.6-13.1 3.6-18.5 6.2-5 2.5-9.3 4.6-12.4 3.8-2.9-0.7-6-4.4-9.2-8.5-1.4-1.8-2.3-3.1-2.6-3.9 0.4-0.6 1.1-1.6 1.6-2.1 4-5.2 10.7-11.8 17.2-18.1 4.7-4.6 9.5-9.3 13.6-13.8zm-70.3-23.9c-1.2 7.4-4.4 17.3-7.3 20.9-3.2 4-8.9 5.8-12.7 4.1-3.8-1.7-6.8-7.2-8.1-14.5-0.8-4.8-2.4-9.2-4.1-13.2 10.9 0.1 21.6 1 32.2 2.7zm-190.4 61.7c26.1-26.1 57.6-44.8 92-55.1 4.2 13.6 9.2 26.4 14.1 38.5 3.8 9.3 8.1 19.7 7.1 29.2-0.4 3.6-1.3 8.3-3.6 9.8-2 1.3-6 1.6-10.3 2-7 0.6-15.7 1.3-23.7 6.9-1.7 1.2-3.3 2.4-4.8 3.6-3.3 2.6-6.4 5-9.2 5.8-2.8 0.8-6.5 0.4-10.8-0.1-2.4-0.3-5-0.6-7.6-0.7-8.5-0.3-27.8 3.8-36.3 14.8-4.2 5.4-5.4 12-3.4 18.5 1.5 4.8 4.6 8.2 7.5 10.8 13.5 12.4 32 21.1 50.8 24.1 2.7 0.4 5.3 0.7 7.8 1 13.8 1.7 20.7 2.9 25.9 12.3 1.3 2.3 2.3 5.1 3.5 8 1.3 3.4 2.6 6.9 4.5 10.4 5.7 10.5 15.3 16.6 25.1 16 7.3-0.4 12.7-4.2 17-7.3 2-1.4 3.9-2.7 5.5-3.4 4.3-1.8 11-0.2 17.7 4.3 4.6 3.1 10.6 8.2 12.8 15 1.7 5.1 0.5 11-2.7 13.8l-29.4 25.1c-9.5 8.1-19.6 17.9-19.9 32.1-0.1 4.5 0.8 8.8 1.6 12.6 0.6 2.7 1.5 7.1 1 8.3-0.5 0.5-3.1 1.1-4.6 1.5-2.7 0.6-5.7 1.4-8.7 2.9-14.8 7.5-16.2 25.2-17.1 36.9-0.7 8.5-3.8 15.7-7 16-2.6 0.3-6.3-4.3-7.6-9.3-0.8-3.1-1.2-6.6-1.6-10.2-0.6-5.3-1.2-11.3-3.3-17.2-2.7-7.6-7.5-13.8-11.7-19.3-4.1-5.4-8-10.5-9.3-15.9-0.9-4-0.6-8.8-0.2-13.9 0.5-6.5 1.1-13.8-1-21.2-2.9-10.6-10.1-18.2-16.5-24.8-4.2-4.4-8.1-8.5-10.5-13-2.8-5.4-2.5-11.1-2.1-17.6 0.4-6.2 0.8-13.2-1.6-20.5-2.5-7.2-8.3-11.4-12.6-14.5-12.7-9.1-24.5-19.4-35.3-30.7-5.7-6-11.3-12.6-13.5-19.9-0.6-1.9-1-3.4-1.3-4.5-1.4-5-2.2-6.8-5.1-10 10-18.6 22.8-35.8 38.2-51.1zm155.6 375.6c-58.8 0-114-22.9-155.6-64.4-41.6-41.6-64.4-96.8-64.4-155.6 0-27.8 5.1-54.8 14.9-79.9 3.8 9.3 10.2 16.9 16.7 23.7 11.6 12.2 24.4 23.4 38.2 33.2 1.9 1.4 4.9 3.5 5.3 4.7 1.2 3.5 0.9 7.8 0.6 12.8-0.5 7.9-1.1 17.8 4.3 28.1 3.6 7 8.8 12.3 13.7 17.5 5.4 5.7 10.1 10.6 11.7 16.3 1.1 4.1 0.7 9.1 0.3 14.4-0.5 6.1-1 13 0.6 20 2.2 9.5 7.9 16.9 12.8 23.4 3.7 4.8 7.1 9.3 8.8 14 1.3 3.6 1.8 7.9 2.3 12.5 0.5 4.2 0.9 8.6 2.1 13.1 3.2 12.4 13.2 24.3 26.7 24.3 0.7 0 1.4 0 2.1-0.1 14-1.3 23.6-14.4 25.2-34.3 0.6-7.7 1.4-18.2 6.2-20.6 1-0.5 2.7-0.9 4.5-1.4 4.1-1 9.7-2.4 14.1-6.9 8.1-8.3 5.9-18.8 4.2-26.5-0.6-3-1.3-5.8-1.2-8 0.1-6 6.7-12.1 12.9-17.4l29.4-25.1c9.6-8.1 13.1-22.3 8.8-35.3-3.2-9.7-10.4-18.4-20.7-25.3-12.7-8.5-25.6-10.6-36.5-6.1-3.7 1.5-6.7 3.7-9.3 5.5-2.5 1.7-5 3.6-6.6 3.6-1.6 0.1-4.4-2-6.4-5.7-1.3-2.3-2.3-5-3.4-7.9-1.3-3.5-2.7-7.1-4.7-10.7-10.4-18.7-26.6-20.7-40.9-22.5-2.4-0.3-4.8-0.6-7.2-1-15-2.3-29.7-9.3-40.4-19-1.3-1.2-1.8-1.8-1.9-2 0-0.1 0-0.1 0-0.1 1.3-3.1 13.3-7.4 19.9-7.2 1.9 0.1 3.9 0.3 6 0.5 5.5 0.6 11.8 1.3 18.4-0.5 6.7-1.9 11.7-5.8 16.2-9.3 1.4-1.1 2.7-2.1 4-3 3.5-2.5 8.3-2.9 13.8-3.3 11-0.9 29.3-2.4 32.1-29.7 1.5-14.5-4-28-8.5-38.8-4.6-11.3-9.4-23.3-13.2-35.8 8.3-1.7 16.8-2.9 25.3-3.6 0.5 1.1 1 2.2 1.4 3.2 2 4.3 3.8 8.4 4.5 12.5 2.4 14.3 9.3 24.8 19.5 29.4 3.6 1.7 7.6 2.5 11.5 2.5 9.3 0 18.7-4.4 25-12.2 5.1-6.3 9.5-18.5 11.3-29.4 10.9 2.8 21.6 6.4 31.9 10.8-2.8 2.8-5.8 5.8-8.7 8.7-7 6.9-14.2 13.9-19 20.2-1.9 2.5-4.8 6.2-5.6 11.4-1.4 8.8 4.1 15.8 6.7 19.2 4.1 5.2 10.2 13.2 20.1 15.6 2.1 0.5 4.2 0.8 6.2 0.8 7.6 0 14.3-3.3 19.9-6.1 4.1-2 8-3.9 11.2-4.2 3.2-0.3 7 1 11.4 2.4 4.6 1.5 9.9 3.2 15.7 3.5 9.3 0.3 17.2-4.1 22.6-12.4 18.8 21.8 32.9 46.7 41.9 73.5-1.5 1.1-4.5 1.2-11.5 1.3-3.1 0-6.5 0.1-10.2 0.4-10.3 0.8-18.2-2.2-27.4-5.6-6.2-2.3-12.6-4.7-20.2-6.2-19.2-3.8-39.1 6.9-50.7 27.4-2.1 3.7-20.1 36.9-6.8 55.2 5 6.9 12 11.1 17.7 14.5 8 4.8 16.3 9.8 25.5 13.5 2 0.8 4 1.5 5.9 2.2 7 2.6 13.6 5 16.8 9.5 2.7 3.7 3.6 9.6 2.7 18-0.7 6.4-3 12.8-5.5 19.6-5.6 15.3-12.6 34.4 3.8 53.1 4.7 5.3 10.3 9.4 16.5 12.1-3.1 3.6-6.4 7.1-9.8 10.4-41.6 41.6-96.8 64.4-155.6 64.4zm178.7-91.6c-5.7-1-10.8-3.9-14.8-8.5-8.2-9.4-5.7-17.8-0.1-33.1 2.8-7.7 5.7-15.6 6.6-24.5 1.4-13.5-0.7-23.9-6.5-31.8-6.8-9.3-17-13.1-26.1-16.4-1.9-0.7-3.6-1.3-5.3-2-7.7-3.1-15-7.5-22.7-12.1-4.5-2.7-9.2-5.5-11.8-9.1-3.2-4.4 0.7-20.7 8-33.7 5.5-9.7 16.5-20.2 29.4-17.6 6.1 1.2 11.5 3.2 17.2 5.3 10.5 3.9 21.3 7.9 35.9 6.8 3.1-0.2 6-0.3 8.9-0.3 5.2-0.1 11.2-0.1 16.7-1.9 3.8 16.4 5.8 33.3 5.8 50.6 0 46.7-14.5 91.2-41.3 128.4z"/></svg>