<svg xmlns="http://www.w3.org/2000/svg" viewBox="0 0 490 490"><path d="m348.4 104.9c-1.3 0-2.5 0-3.7 0.1-45.7 1.7-74.4 25.8-91.7 32.9-4.2-22.2-5.8-69.4 40.6-116.2l-21.7-21.6c-25.6 25.8-39 52-45.7 75.6-52.5-69.5-121.5-59.8-121.5-59.8 48.4 91 106.3 70.8 120.4 64.1-4.7 18.9-5.3 36-4.1 49.6-17.5-9.9-42-23.4-75.7-24.6-1.2 0-2.5-0.1-3.7-0.1-53.9 0-141.6 41.3-141.6 162.4 0 124 99.7 222.7 150.8 222.7 51.1 0 68.8-14.5 94.2-14.5s43.1 14.5 94.2 14.5c51.1 0 150.8-98.8 150.8-222.7 0-121.1-87.7-162.4-141.6-162.4zm-9.2 354.5c-25.9 0-41.1-4.1-55.8-8-11.7-3.2-23.9-6.4-38.4-6.4s-26.7 3.3-38.4 6.4c-14.7 4-29.9 8-55.8 8-29 0-120.2-79.7-120.2-192.1 0-45.1 13.6-80 40.3-103.7 23.3-20.7 51.8-28 70.7-28 0.9 0 1.7 0 2.6 0 26.8 1 46.7 12.2 62.7 21.2 13.1 7.4 24.4 13.8 38.1 13.8s25-6.4 38.1-13.8c16-9 35.8-20.2 62.7-21.2 0.9 0 1.7 0 2.6 0 18.9 0 47.4 7.4 70.7 28 26.7 23.8 40.3 58.7 40.3 103.7 0 112.4-91.1 192.1-120.2 192.1z"/></svg>