<svg xmlns="http://www.w3.org/2000/svg" viewBox="0 0 219.8 219.8"><path d="m159.4 26c-0.9 0-1.8 0-2.8 0.1-10-16.2-27.4-26-46.7-26-19.3 0-36.8 9.9-46.7 26-0.9 0-1.8-0.1-2.8-0.1-30.3 0-55 24.7-55 55 0 25.4 17.4 47.2 41.4 53.3v78.1c0 4.1 3.4 7.5 7.5 7.5h111.1c4.1 0 7.5-3.4 7.5-7.5v-78.1c24-6.1 41.4-27.9 41.4-53.3 0-30.3-24.7-55-55-55zm-1.5 178.8h-96.1v-14.1h96.1v14.1zm6.6-84.2c-3.7 0.5-6.6 3.7-6.6 7.4v50.2h-14.4v-46.8c0-3.5-2.8-6.2-6.2-6.2s-6.2 2.8-6.2 6.3v46.8h-14.9v-46.8c0-3.5-2.8-6.2-6.2-6.2s-6.2 2.8-6.2 6.3v46.8h-14.9v-46.8c0-3.5-2.8-6.2-6.2-6.2s-6.2 2.8-6.2 6.3v46.8h-14.4v-49.4c0-0.1 0-0.2 0-0.3 0.2-4-2.6-7.4-6.5-7.9-19.9-2.5-34.9-19.5-34.9-39.6 0-22 17.9-40 40-40 1.9 0 3.9 0.1 5.8 0.4 3.2 0.5 6.4-1.2 7.8-4.1 6.8-13.8 20.5-22.3 35.8-22.3 15.3 0 29.1 8.5 35.9 22.3 1.4 2.9 4.6 4.6 7.8 4.1 1.9-0.3 3.9-0.4 5.8-0.4 22 0 40 17.9 40 40 0 20.1-15 37.1-34.9 39.6z"/></svg>