<?xml version="1.0" encoding="UTF-8" standalone="no"?>
<!-- Generator: Adobe Illustrator 18.0.0, SVG Export Plug-In . SVG Version: 6.00 Build 0)  -->

<svg
   xmlns:dc="http://purl.org/dc/elements/1.1/"
   xmlns:cc="http://creativecommons.org/ns#"
   xmlns:rdf="http://www.w3.org/1999/02/22-rdf-syntax-ns#"
   xmlns:svg="http://www.w3.org/2000/svg"
   xmlns="http://www.w3.org/2000/svg"
   xmlns:sodipodi="http://sodipodi.sourceforge.net/DTD/sodipodi-0.dtd"
   xmlns:inkscape="http://www.inkscape.org/namespaces/inkscape"
   version="1.1"
   id="Capa_1"
   x="0px"
   y="0px"
   viewBox="0 0 208.92999 208.92999"
   xml:space="preserve"
   sodipodi:docname="chef-hat_inkscape.svg"
   inkscape:version="0.92.2 (5c3e80d, 2017-08-06)"
   width="208.92999"
   height="208.92999"
   inkscape:export-filename="D:\Local_websites\Goutu_Main\wp-content\themes\foodiepro-2.1.8\images\rating-icons\rating-hato.png"
   inkscape:export-xdpi="11.03"
   inkscape:export-ydpi="11.03"><metadata
     id="metadata41"><rdf:RDF><cc:Work
         rdf:about=""><dc:format>image/svg+xml</dc:format><dc:type
           rdf:resource="http://purl.org/dc/dcmitype/StillImage" /><dc:title></dc:title></cc:Work></rdf:RDF></metadata><defs
     id="defs39" /><sodipodi:namedview
     pagecolor="#ffffff"
     bordercolor="#666666"
     borderopacity="1"
     objecttolerance="10"
     gridtolerance="10"
     guidetolerance="10"
     inkscape:pageopacity="0"
     inkscape:pageshadow="2"
     inkscape:window-width="1366"
     inkscape:window-height="705"
     id="namedview37"
     showgrid="false"
     inkscape:zoom="2.6468195"
     inkscape:cx="147.37117"
     inkscape:cy="104.04997"
     inkscape:window-x="-8"
     inkscape:window-y="-8"
     inkscape:window-maximized="1"
     inkscape:current-layer="Capa_1"
     showguides="false"
     fit-margin-top="0"
     fit-margin-left="0"
     fit-margin-right="0"
     fit-margin-bottom="0" /><g
     transform="matrix(1,0,0,0.95057622,-4.528937,0.4150192)"
     id="g4"
     style="display:inline;fill:#000000"
     inkscape:export-xdpi="11"
     inkscape:export-ydpi="11"><path
       inkscape:connector-curvature="0"
       d="m 159.4,25.975 c -0.916,0 -1.836,0.024 -2.759,0.07 C 146.664,9.856 129.195,0 109.896,0 90.596,0 73.127,9.856 63.152,26.045 c -0.923,-0.047 -1.844,-0.07 -2.76,-0.07 -30.306,0 -54.961,24.656 -54.961,54.962 0,25.355 17.397,47.182 41.432,53.264 v 78.092 c 0,4.143 3.357,7.5 7.5,7.5 h 111.066 c 4.143,0 7.5,-3.357 7.5,-7.5 v -78.088 c 24.031,-6.084 41.432,-27.917 41.432,-53.268 0,-30.306 -24.655,-54.962 -54.961,-54.962 z m -1.471,178.817 H 61.863 v -14.136 h 20.639 27.395 27.396 20.638 v 14.136 z m 6.556,-84.229 c -3.747,0.476 -6.556,3.663 -6.556,7.44 v 50.152 h -14.388 v -46.779 c 0,-3.452 -2.798,-6.25 -6.25,-6.25 -3.452,0 -6.25,2.798 -6.25,6.25 v 46.779 h -14.896 v -46.779 c 0,-3.452 -2.798,-6.25 -6.25,-6.25 -3.452,0 -6.25,2.798 -6.25,6.25 v 46.779 H 88.752 v -46.779 c 0,-3.452 -2.798,-6.25 -6.25,-6.25 -3.452,0 -6.25,2.798 -6.25,6.25 v 46.779 H 61.863 V 128.73 c 0.008,-0.085 0.015,-0.17 0.021,-0.255 0.248,-3.952 -2.618,-7.416 -6.547,-7.912 -19.899,-2.51 -34.905,-19.546 -34.905,-39.626 0,-22.035 17.927,-39.962 39.961,-39.962 1.929,0 3.893,0.144 5.842,0.431 3.221,0.472 6.374,-1.184 7.813,-4.102 C 80.837,23.546 94.575,15 109.896,15 c 15.32,0 29.058,8.547 35.852,22.305 1.439,2.917 4.587,4.571 7.814,4.101 1.944,-0.286 3.908,-0.431 5.838,-0.431 22.034,0 39.961,17.927 39.961,39.962 0,20.068 -14.993,37.103 -34.876,39.626 z"
       id="path2"
       style="fill:#000000" /></g><g
     transform="matrix(1,0,0,0.95057622,-16.528937,0.41501924)"
     id="g6"
     style="display:inline;fill:#cccccc"
     inkscape:export-xdpi="11"
     inkscape:export-ydpi="11" /><g
     transform="matrix(1,0,0,0.95057622,-16.528937,0.41501924)"
     id="g8"
     style="display:inline;fill:#cccccc"
     inkscape:export-xdpi="11"
     inkscape:export-ydpi="11" /><g
     transform="matrix(1,0,0,0.95057622,-16.528937,0.41501924)"
     id="g10"
     style="display:inline;fill:#cccccc"
     inkscape:export-xdpi="11"
     inkscape:export-ydpi="11" /><g
     transform="matrix(1,0,0,0.95057622,-16.528937,0.41501924)"
     id="g12"
     style="display:inline;fill:#cccccc"
     inkscape:export-xdpi="11"
     inkscape:export-ydpi="11" /><g
     transform="matrix(1,0,0,0.95057622,-16.528937,0.41501924)"
     id="g14"
     style="display:inline;fill:#cccccc"
     inkscape:export-xdpi="11"
     inkscape:export-ydpi="11" /><g
     transform="matrix(1,0,0,0.95057622,-16.528937,0.41501924)"
     id="g16"
     style="display:inline;fill:#cccccc"
     inkscape:export-xdpi="11"
     inkscape:export-ydpi="11" /><g
     transform="matrix(1,0,0,0.95057622,-16.528937,0.41501924)"
     id="g18"
     style="display:inline;fill:#cccccc"
     inkscape:export-xdpi="11"
     inkscape:export-ydpi="11" /><g
     transform="matrix(1,0,0,0.95057622,-16.528937,0.41501924)"
     id="g20"
     style="display:inline;fill:#cccccc"
     inkscape:export-xdpi="11"
     inkscape:export-ydpi="11" /><g
     transform="matrix(1,0,0,0.95057622,-16.528937,0.41501924)"
     id="g22"
     style="display:inline;fill:#cccccc"
     inkscape:export-xdpi="11"
     inkscape:export-ydpi="11" /><g
     transform="matrix(1,0,0,0.95057622,-16.528937,0.41501924)"
     id="g24"
     style="display:inline;fill:#cccccc"
     inkscape:export-xdpi="11"
     inkscape:export-ydpi="11" /><g
     transform="matrix(1,0,0,0.95057622,-16.528937,0.41501924)"
     id="g26"
     style="display:inline;fill:#cccccc"
     inkscape:export-xdpi="11"
     inkscape:export-ydpi="11" /><g
     transform="matrix(1,0,0,0.95057622,-16.528937,0.41501924)"
     id="g28"
     style="display:inline;fill:#cccccc"
     inkscape:export-xdpi="11"
     inkscape:export-ydpi="11" /><g
     transform="matrix(1,0,0,0.95057622,-16.528937,0.41501924)"
     id="g30"
     style="display:inline;fill:#cccccc"
     inkscape:export-xdpi="11"
     inkscape:export-ydpi="11" /><g
     transform="matrix(1,0,0,0.95057622,-16.528937,0.41501924)"
     id="g32"
     style="display:inline;fill:#cccccc"
     inkscape:export-xdpi="11"
     inkscape:export-ydpi="11" /><g
     transform="matrix(1,0,0,0.95057622,-16.528937,0.41501924)"
     id="g34"
     style="display:inline;fill:#cccccc"
     inkscape:export-xdpi="11"
     inkscape:export-ydpi="11" /></svg>