<?xml version="1.0" encoding="UTF-8" standalone="no"?>
<svg
   xmlns:dc="http://purl.org/dc/elements/1.1/"
   xmlns:cc="http://creativecommons.org/ns#"
   xmlns:rdf="http://www.w3.org/1999/02/22-rdf-syntax-ns#"
   xmlns:svg="http://www.w3.org/2000/svg"
   xmlns="http://www.w3.org/2000/svg"
   xmlns:sodipodi="http://sodipodi.sourceforge.net/DTD/sodipodi-0.dtd"
   xmlns:inkscape="http://www.inkscape.org/namespaces/inkscape"
   width="24"
   height="24"
   version="1.1"
   viewBox="0 0 209 209"
   xml:space="preserve"
   id="svg819"
   sodipodi:docname="chef-hat.svg"
   inkscape:version="0.92.2 (5c3e80d, 2017-08-06)"><metadata
     id="metadata825"><rdf:RDF><cc:Work
         rdf:about=""><dc:format>image/svg+xml</dc:format><dc:type
           rdf:resource="http://purl.org/dc/dcmitype/StillImage" /></cc:Work></rdf:RDF></metadata><defs
     id="defs823" /><sodipodi:namedview
     pagecolor="#ffffff"
     bordercolor="#666666"
     borderopacity="1"
     objecttolerance="10"
     gridtolerance="10"
     guidetolerance="10"
     inkscape:pageopacity="0"
     inkscape:pageshadow="2"
     inkscape:window-width="1366"
     inkscape:window-height="705"
     id="namedview821"
     showgrid="false"
     inkscape:zoom="11.520833"
     inkscape:cx="19.957756"
     inkscape:cy="9.3309754"
     inkscape:window-x="-8"
     inkscape:window-y="-8"
     inkscape:window-maximized="1"
     inkscape:current-layer="svg819" /><g
     transform="matrix(1,0,0,1.1029447,-8.7793848,-22.247821)"
     id="g817"
     style="fill:#999999"
     inkscape:export-xdpi="96"
     inkscape:export-ydpi="96"><path
       d="m 159,26 c -0.9,0 -2,0.02 -3,0.07 -10,-16 -27,-26 -47,-26 -19,0 -37,10 -47,26 C 61.1,26.02 60,26 59,26 29,26 4,51 4,81 c 0,25 17,47 41,53 v 78 c 0,4 3,8 8,8 h 111 c 4,0 8,-3 8,-8 v -78 c 24,-6 41,-28 41,-53 0,-30 -25,-55 -55,-55 z m -1,179 H 62 v -14 h 96 z m 7,-84 c -4,0.5 -7,4 -7,7 v 50 h -14 v -47 c 0,-3 -3,-6 -6,-6 -3,0 -6,3 -6,6 v 47 h -15 v -47 c 0,-3 -3,-6 -6,-6 -3,0 -6,3 -6,6 v 47 H 90 v -47 c 0,-3 -3,-6 -6,-6 -3,0 -6,3 -6,6 v 47 H 64 v -49 c 0.008,-0.08 0.02,-0.2 0.02,-0.3 0.2,-4 -3,-7 -7,-8 -20,-3 -35,-20 -35,-40 0,-22 18,-40 40,-40 2,0 4,0.1 6,0.4 3,0.5 6,-1 8,-4 7,-14 21,-22 36,-22 15,0 29,9 36,22 1,3 5,5 8,4 2,-0.3 4,-0.4 6,-0.4 22,0 40,18 40,40 0,20 -15,37 -35,40 z"
       id="path815"
       inkscape:connector-curvature="0"
       style="fill:#999999" /></g></svg>