<?xml version="1.0" encoding="UTF-8"?>
<svg width="24" height="24" version="1.1" viewBox="0 0 209 209" xml:space="preserve" xmlns="http://www.w3.org/2000/svg"><g transform="matrix(1 0 0 1 -5 .4)"><path d="m159 26c-0.9 0-2 0.02-3 0.07-10-16-27-26-47-26-19 0-37 10-47 26-0.9-0.05-2-0.07-3-0.07-30 0-55 25-55 55 0 25 17 47 41 53v78c0 4 3 8 8 8h111c4 0 8-3 8-8v-78c24-6 41-28 41-53 0-30-25-55-55-55zm-1 179h-96v-14h96v14zm7-84c-4 0.5-7 4-7 7v50h-14v-47c0-3-3-6-6-6s-6 3-6 6v47h-15v-47c0-3-3-6-6-6s-6 3-6 6v47h-15v-47c0-3-3-6-6-6s-6 3-6 6v47h-14v-49c8e-3 -0.08 0.02-0.2 0.02-0.3 0.2-4-3-7-7-8-20-3-35-20-35-40 0-22 18-40 40-40 2 0 4 0.1 6 0.4 3 0.5 6-1 8-4 7-14 21-22 36-22 15 0 29 9 36 22 1 3 5 5 8 4 2-0.3 4-0.4 6-0.4 22 0 40 18 40 40 0 20-15 37-35 40z"/></g></svg>
