<svg version="1.1" viewBox="0 0 28.728 28.728" xml:space="preserve" xmlns="http://www.w3.org/2000/svg">



  <g transform="translate(2.288 2.389)">
    <circle cx="12.076" cy="11.975" r="14.364" fill="#999"/>
  </g>
  <g transform="translate(2.288 2.389)">
    <path d="m3.1017 4.5c-1.1046 0-2 0.9-2 2v12c0 1.1 0.8954 2 2 2h18c1.105 0 2-0.9 2-2v-12c0-1.1-0.895-2-2-2h-9z" fill="#7f8c8d"/>
    <path d="m3.1017 3.5c-1.1046 0-2 0.9-2 2v12c0 1.1 0.8954 2 2 2h18c1.105 0 2-0.9 2-2v-12c0-1.1-0.895-2-2-2h-9z" fill="#bdc3c7"/>
    <path d="m3.1017 19.5c-0.5523 0-1.0443-0.3-1.4062-0.6l10.406-10.4 10.406 10.4c-0.362 0.3-0.854 0.6-1.406 0.6h-18z" fill="#95a5a6"/>
    <path d="m1.9455 4.5 10.156 12 10.156-12z" fill="#7f8c8d"/>
    <path d="m3.1017 3.5c-0.5523 0-1.0443 0.2-1.4062 0.6l10.406 10.4 10.406-10.4c-0.362-0.4-0.854-0.6-1.406-0.6h-18z" fill="#ecf0f1"/>
  </g>
</svg>
