<?xml version="1.0" encoding="UTF-8" standalone="no"?>
<svg
   xmlns:dc="http://purl.org/dc/elements/1.1/"
   xmlns:cc="http://creativecommons.org/ns#"
   xmlns:rdf="http://www.w3.org/1999/02/22-rdf-syntax-ns#"
   xmlns:svg="http://www.w3.org/2000/svg"
   xmlns="http://www.w3.org/2000/svg"
   xmlns:sodipodi="http://sodipodi.sourceforge.net/DTD/sodipodi-0.dtd"
   xmlns:inkscape="http://www.inkscape.org/namespaces/inkscape"
   id="Layer_1"
   data-name="Layer 1"
   viewBox="0 0 88.28 126.07"
   version="1.1"
   sodipodi:docname="arrow-33.svg"
   inkscape:version="0.92.2 (5c3e80d, 2017-08-06)">
  <metadata
     id="metadata13">
    <rdf:RDF>
      <cc:Work
         rdf:about="">
        <dc:format>image/svg+xml</dc:format>
        <dc:type
           rdf:resource="http://purl.org/dc/dcmitype/StillImage" />
      </cc:Work>
    </rdf:RDF>
  </metadata>
  <defs
     id="defs11" />
  <sodipodi:namedview
     pagecolor="#ffffff"
     bordercolor="#666666"
     borderopacity="1"
     objecttolerance="10"
     gridtolerance="10"
     guidetolerance="10"
     inkscape:pageopacity="0"
     inkscape:pageshadow="2"
     inkscape:window-width="1366"
     inkscape:window-height="705"
     id="namedview9"
     showgrid="false"
     inkscape:zoom="1.8719759"
     inkscape:cx="44.139999"
     inkscape:cy="63.035"
     inkscape:window-x="-8"
     inkscape:window-y="-8"
     inkscape:window-maximized="1"
     inkscape:current-layer="Layer_1" />
  <title
     id="title2">arrow-33</title>
  <g
     id="g822"
     transform="rotate(-102.6943,44.125418,63.037775)"
     inkscape:export-xdpi="85.480003"
     inkscape:export-ydpi="85.480003">
    <path
       transform="translate(-245.2,-739.28)"
       id="path4"
       d="m 256.21,739.29 a 1.56,1.56 0 0 1 1.77,1.47 9,9 0 0 1 -0.43,1.85 c -0.47,1.19 -1,2.35 -1.56,3.5 -3.82,7.87 -5.56,16.32 -6.72,24.88 a 52.23,52.23 0 0 0 1.2,19 c 0.77,3.26 1.69,6.5 2.76,9.68 1.85,5.51 5,10.39 8.32,15 a 84.58,84.58 0 0 0 15.77,16 125,125 0 0 0 20.12,13 158.76,158.76 0 0 0 19.17,8.76 25.59,25.59 0 0 1 3,1.44 1.45,1.45 0 0 1 0.29,1.74 2.32,2.32 0 0 1 -1.07,0.82 2.67,2.67 0 0 1 -1.4,0 21.38,21.38 0 0 1 -2.73,-0.9 c -7.81,-3.27 -15.62,-6.56 -22.93,-10.87 -3.44,-2 -6.89,-4.06 -10.2,-6.3 a 102.8,102.8 0 0 1 -8.4,-6.37 85.85,85.85 0 0 1 -15.15,-16 66.72,66.72 0 0 1 -11,-25.3 118.11,118.11 0 0 1 -1.69,-12.82 c -0.32,-3.39 0.42,-6.7 0.87,-10 a 83.25,83.25 0 0 1 7.86,-26 11.72,11.72 0 0 1 1.2,-2 2.56,2.56 0 0 1 0.95,-0.58 z"
       inkscape:connector-curvature="0" />
    <path
       id="path6"
       transform="translate(-245.2,-739.28)"
       d="m 317.29,865.36 c -2.23,-0.19 -4.45,-0.39 -6.68,-0.57 -2.07,-0.17 -4.14,-0.3 -6.21,-0.47 -8.35,-0.69 -16.45,-2.32 -23.86,-6.47 a 18.87,18.87 0 0 1 -2,-1.32 1.59,1.59 0 0 1 1.32,-2.64 5.68,5.68 0 0 1 1.79,0.62 c 7.12,4 14.9,5.64 22.93,6.31 7,0.58 14,1.21 21.05,0.29 a 7.83,7.83 0 0 0 1.84,-0.46 0.86,0.86 0 0 0 0.38,-0.75 16.63,16.63 0 0 0 -1.19,-2 c -6.49,-9.87 -13.45,-19.44 -19,-29.94 a 20.62,20.62 0 0 1 -2.48,-6.7 5.16,5.16 0 0 1 0,-1.41 1.39,1.39 0 0 1 1.29,-1.22 1.9,1.9 0 0 1 1.26,0.46 2.39,2.39 0 0 1 0.74,1.19 c 1.12,4.59 3.67,8.49 6,12.47 3.24,5.51 6.75,10.84 10.44,16.08 2.39,3.39 4.53,7 7,10.28 a 15.85,15.85 0 0 1 1.4,2.49 1.6,1.6 0 0 1 -0.89,2 5.19,5.19 0 0 1 -1.35,0.47 c -4.55,0.34 -9.07,1.29 -13.78,1.29 z"
       inkscape:connector-curvature="0" />
  </g>
</svg>
