<svg version="1" xmlns="http://www.w3.org/2000/svg" width="1364" height="1364" viewBox="0 0 1023.000000 1023.000000"><path d="M398.5 76.1c-84.9 6.3-158.4 33.6-217.5 80.7-12.5 10-35.6 33.1-45.6 45.7C56.9 300.5 24.1 435 40 593c5.5 54.4 17.7 104.6 35.8 147.5 24.4 57.8 61.8 105.9 110.9 142.7 77.9 58.3 187 82.7 307.7 68.7 47.3-5.4 136.1-21.6 162.2-29.4 13.8-4.2 32-12.6 40.8-18.9 22-15.7 32.6-38.9 37.1-81.6 2.2-20.4 2.2-263.9 0-278.5-5.3-34.8-16.9-51-41.2-57.3-6.3-1.6-15.9-1.7-121.3-1.7-128.2 0-119-.5-132 7.3-10.9 6.5-19.8 19.5-23.7 34.2-2.2 8.5-2.2 26 .1 35.4 4.7 19.5 19 34.2 39.2 40.2 5.2 1.6 12 1.8 61.2 2.1l55.2.4v190.8l-3.7 1.1c-17.3 4.8-49.1 10.7-73.3 13.6-21.1 2.5-69 3-87 1-111.2-12.7-173.7-86-189-221.5-6.8-60.4-4.2-130.8 6.6-181.1 12.1-56.6 33.6-101.3 63.7-132.7 28.9-30.1 66.4-48.6 113.7-55.9 14.2-2.2 56.8-3 75.3-1.5 31.4 2.6 62 8.4 93 17.6 24.9 7.4 49.8 16.6 63.1 23.4 21.9 11.1 47.5 2.6 63.2-21.1 19.6-29.4 17.7-67.3-4.6-91.1-8.3-8.9-16.3-14.4-33.2-23-26.1-13.4-54.9-23.7-89.3-32.2C536 83 507.6 78.4 473.8 76c-16.8-1.1-59-1.1-75.3.1zM831.2 77c-25.9 3.7-50.1 15.9-64 32.4-10.3 12.1-15.4 27.4-15.4 46.1-.1 13.9 47.1 477.5 49.7 488.5 5.5 23.5 23.1 38.1 46 38.1 9.6.1 14.9-1.2 22.8-5.3 11.6-6.2 20.5-18.4 24.2-33.3.8-3.3 12.5-112.7 26.1-243 27.4-263.8 26.5-252.5 20.9-269-8.9-26.6-33.1-45.4-68-53-8.4-1.9-33.5-2.7-42.3-1.5zM834.5 785.1c-21.2 3.1-42.2 15.4-55.2 32.4-14.7 19.2-20.6 42.8-16.9 67.2 4.3 28.6 20.7 51 46.1 63.3 12 5.7 19.1 7.7 31.9 8.9 28.4 2.7 54.1-5.8 72.5-24.1 27.9-27.6 34-71.5 14.8-105.8-5.6-9.9-19.5-23.9-30.2-30.2-17.9-10.6-40.9-14.9-63-11.7z"/></svg>