<?xml version="1.0" encoding="UTF-8" standalone="no"?>
<!-- Created with Inkscape (http://www.inkscape.org/) -->

<svg
   xmlns:osb="http://www.openswatchbook.org/uri/2009/osb"
   xmlns:dc="http://purl.org/dc/elements/1.1/"
   xmlns:cc="http://creativecommons.org/ns#"
   xmlns:rdf="http://www.w3.org/1999/02/22-rdf-syntax-ns#"
   xmlns:svg="http://www.w3.org/2000/svg"
   xmlns="http://www.w3.org/2000/svg"
   xmlns:sodipodi="http://sodipodi.sourceforge.net/DTD/sodipodi-0.dtd"
   xmlns:inkscape="http://www.inkscape.org/namespaces/inkscape"
   width="110.49616mm"
   height="59.305229mm"
   viewBox="0 0 110.49616 59.305226"
   version="1.1"
   id="svg2913"
   inkscape:version="0.92.4 (5da689c313, 2019-01-14)"
   sodipodi:docname="logo-text-spaced.svg">
  <defs
     id="defs2907">
    <linearGradient
       id="linearGradient8743"
       osb:paint="gradient">
      <stop
         style="stop-color:#5f5f5f;stop-opacity:1;"
         offset="0"
         id="stop8739" />
      <stop
         style="stop-color:#5f5f5f;stop-opacity:0;"
         offset="1"
         id="stop8741" />
    </linearGradient>
  </defs>
  <sodipodi:namedview
     id="base"
     pagecolor="#ffffff"
     bordercolor="#666666"
     borderopacity="1.0"
     inkscape:pageopacity="0.0"
     inkscape:pageshadow="2"
     inkscape:zoom="0.7"
     inkscape:cx="-43.010054"
     inkscape:cy="54.157924"
     inkscape:document-units="mm"
     inkscape:current-layer="layer1"
     showgrid="false"
     inkscape:window-width="1920"
     inkscape:window-height="1017"
     inkscape:window-x="-8"
     inkscape:window-y="-8"
     inkscape:window-maximized="1"
     showguides="false"
     fit-margin-top="1.1"
     fit-margin-left="1.1"
     fit-margin-right="1"
     fit-margin-bottom="1.1" />
  <metadata
     id="metadata2910">
    <rdf:RDF>
      <cc:Work
         rdf:about="">
        <dc:format>image/svg+xml</dc:format>
        <dc:type
           rdf:resource="http://purl.org/dc/dcmitype/StillImage" />
        <dc:title></dc:title>
      </cc:Work>
    </rdf:RDF>
  </metadata>
  <g
     inkscape:label="Calque 1"
     inkscape:groupmode="layer"
     id="layer1"
     transform="translate(3.6850578,-15.723705)">
    <path
       inkscape:connector-curvature="0"
       id="path4771"
       style="font-style:normal;font-variant:normal;font-weight:normal;font-stretch:normal;font-size:11.83384037px;line-height:1.25;font-family:MasanaScript;-inkscape-font-specification:MasanaScript;letter-spacing:-0.03020303px;word-spacing:0px;fill:#333333;fill-opacity:1;stroke:none;stroke-width:0.18876804px;stroke-linecap:butt;stroke-linejoin:miter;stroke-opacity:1"
       d="m -1.2477687,68.022286 c -0.5443566,0.816535 -1.1597163,-0.165674 -0.4851874,-0.130173 0.1656737,0.01183 0.3313475,0.05917 0.4970213,0.118339 z m 2.449605,-7.052969 C 1.52135,61.158658 1.8053621,60.673471 1.4858484,60.484129 1.2610055,60.353957 0.07762144,59.8096 -0.89275347,60.744474 c -0.79286733,0.769199 -0.63902743,1.952583 -0.44968593,2.899291 0.1893414,1.005876 0.63902737,2.745451 0.3313475,3.869665 -1.8815806,-0.781033 -2.0117528,1.408227 -0.7336981,1.360892 0.4615198,0 0.78103348,-0.236677 1.00587645,-0.591692 0.74553194,0.473354 2.05908825,1.32539 3.33714295,0.165674 0.2721784,-0.248511 -0.1538399,-0.662695 -0.4023505,-0.390517 -0.7218643,0.804701 -1.97625138,0.15384 -2.72178332,-0.295846 0.29584601,-1.01771 0.1183384,-2.437771 -0.0118338,-3.029463 -0.21300913,-0.946707 -0.78103348,-2.80462 0.0236677,-3.585654 0.68636274,-0.650861 1.52656542,-0.284012 1.71590682,-0.177507 z" />
    <path
       inkscape:connector-curvature="0"
       id="path4773"
       style="font-style:normal;font-variant:normal;font-weight:normal;font-stretch:normal;font-size:11.83384037px;line-height:1.25;font-family:MasanaScript;-inkscape-font-specification:MasanaScript;letter-spacing:-0.03020303px;word-spacing:0px;fill:#333333;fill-opacity:1;stroke:none;stroke-width:0.18876804px;stroke-linecap:butt;stroke-linejoin:miter;stroke-opacity:1"
       d="M 3.0330596,67.122914 C 3.3644071,66.8034 3.8022592,66.767899 4.109939,67.016409 c 0.3431814,0.284012 0.3431814,0.875704 -0.023668,1.218886 -0.3668491,0.355015 -0.9822088,0.30768 -1.2307194,-0.071 -0.224843,-0.319514 -0.15384,-0.733698 0.1775076,-1.041378 z M 4.926474,67.5726 C 4.950142,67.205751 4.7489664,66.815234 4.4649542,66.590391 3.8969299,66.128871 3.1395641,66.259043 2.6425428,66.720563 c -0.4733536,0.449686 -0.662695,1.159717 -0.2485106,1.763242 0.4733536,0.710031 1.5028977,0.698197 2.0827559,0.165674 0.082837,-0.08284 0.1656738,-0.177507 0.224843,-0.284012 0.5561905,0.674529 1.7514083,1.053212 2.6507802,0.071 C 7.6127558,68.164292 7.1985714,67.797443 6.9500607,68.057787 6.0506889,69.05183 4.9028063,68.045953 4.926474,67.5726 Z" />
    <path
       inkscape:connector-curvature="0"
       id="path4775"
       style="font-style:normal;font-variant:normal;font-weight:normal;font-stretch:normal;font-size:11.83384037px;line-height:1.25;font-family:MasanaScript;-inkscape-font-specification:MasanaScript;letter-spacing:-0.03020303px;word-spacing:0px;fill:#333333;fill-opacity:1;stroke:none;stroke-width:0.18876804px;stroke-linecap:butt;stroke-linejoin:miter;stroke-opacity:1"
       d="m 9.4705414,67.832944 c 0.2011753,1.798744 2.7927866,1.727741 3.7749946,0.603526 0.248511,-0.272178 -0.153839,-0.639027 -0.414184,-0.378683 -0.946707,0.994043 -2.638946,0.733698 -2.792786,-0.260344 -0.1183387,-0.792868 0.698196,-1.266221 1.207051,-0.875705 0.295846,0.224843 0.639028,-0.189341 0.355016,-0.426018 -0.934874,-0.769199 -2.2720977,0.04734 -2.1300916,1.337224 z" />
    <path
       inkscape:connector-curvature="0"
       id="path4777"
       style="font-style:normal;font-variant:normal;font-weight:normal;font-stretch:normal;font-size:11.83384037px;line-height:1.25;font-family:MasanaScript;-inkscape-font-specification:MasanaScript;letter-spacing:-0.03020303px;word-spacing:0px;fill:#333333;fill-opacity:1;stroke:none;stroke-width:0.18876804px;stroke-linecap:butt;stroke-linejoin:miter;stroke-opacity:1"
       d="m 13.359189,67.82111 c -0.01183,-0.366849 0.224843,-0.650861 0.603526,-0.721864 0.437852,-0.08284 0.875704,0.284012 0.875704,0.698197 0,0.414184 -0.473354,0.792867 -0.911206,0.686362 -0.343181,-0.08284 -0.55619,-0.331347 -0.568024,-0.662695 z m 1.928916,-0.532522 c -0.248511,-0.520689 -0.840203,-0.852037 -1.420061,-0.745532 -0.627194,0.118338 -1.07688,0.639027 -1.065046,1.289888 0.05917,1.656738 2.496941,1.538399 2.591611,0.04734 0.437852,0.0355 0.745532,-0.130173 1.159717,-0.449686 0.745532,-0.579859 0.816535,0.911205 0.816535,1.218885 0,0.071 0.02367,0.118339 0.05917,0.165674 0.130172,0.189341 0.497021,0.165674 0.508855,-0.142006 0.02367,-0.366849 0.118338,-1.408227 0.721864,-1.420061 0.30768,-0.01183 0.674529,0.366849 0.61536,1.396393 0,0.08284 0.02367,0.142006 0.04733,0.189342 0.05917,0.071 0.130173,0.106504 0.213009,0.106504 0.08284,0.01183 0.165674,-0.01183 0.224843,-0.071 0.0355,-0.04734 0.05917,-0.09467 0.071,-0.177507 0.05917,-0.46152 0.0355,-1.455563 0.698197,-1.455563 0.272178,0 0.485188,0.449686 0.591692,0.639028 0.556191,1.041377 1.420061,1.72774 2.49694,0.55619 0.248511,-0.272178 -0.165673,-0.639027 -0.414184,-0.378683 -1.360892,1.491064 -1.443729,-1.372725 -2.674448,-1.372725 -0.508855,0 -0.792867,0.236676 -0.958541,0.568024 -0.189341,-0.343181 -0.497021,-0.556191 -0.911206,-0.556191 -0.319513,0 -0.71003,0.130173 -0.970375,0.639028 -0.177507,-0.366849 -0.449686,-0.591692 -0.86387,-0.579858 -0.603526,0 -0.757366,0.568024 -1.289889,0.55619 -0.09467,0 -0.189341,0 -0.24851,-0.02367 z" />
    <path
       inkscape:connector-curvature="0"
       id="path4779"
       style="font-style:normal;font-variant:normal;font-weight:normal;font-stretch:normal;font-size:11.83384037px;line-height:1.25;font-family:MasanaScript;-inkscape-font-specification:MasanaScript;letter-spacing:-0.03020303px;word-spacing:0px;fill:#333333;fill-opacity:1;stroke:none;stroke-width:0.18876804px;stroke-linecap:butt;stroke-linejoin:miter;stroke-opacity:1"
       d="m 25.995383,68.519307 c 0.01183,-1.242553 0.757366,-1.360892 0.899372,-1.360892 0.30768,-0.01183 0.828369,0.473354 0.781033,1.491064 -0.01183,0.165674 0.106505,0.284012 0.272179,0.284012 0.130172,0 0.272178,-0.071 0.284012,-0.24851 0.02367,-0.201176 0.02367,-0.402351 0.04734,-0.591692 0.189342,-1.621236 1.337224,-0.61536 1.976252,-0.02367 0.875704,0.840203 2.106423,1.443728 3.088632,0.366849 0.248511,-0.272178 -0.15384,-0.639027 -0.414184,-0.378683 -0.236677,0.260345 -0.520689,0.390517 -0.852037,0.390517 -1.278055,-0.01183 -1.881581,-1.798744 -3.171469,-1.775076 -0.508855,0.02367 -0.792867,0.24851 -0.958541,0.568024 -0.224843,-0.437852 -0.61536,-0.650861 -1.065046,-0.639027 -0.295846,0 -0.840202,0.118338 -1.159716,0.662695 -0.390517,-0.674529 -1.195218,-0.698197 -1.739575,-0.177508 -0.272178,0.260345 -0.497021,0.61536 -0.840202,0.970375 -0.260345,0.260345 0.15384,0.650861 0.40235,0.378683 0.402351,-0.414184 0.840203,-1.159716 1.301723,-1.159716 0.461519,-0.01183 0.603525,0.686362 0.591692,1.242553 -0.01183,0.201175 0.02367,0.414184 0.284012,0.414184 0.272178,0 0.272178,-0.213009 0.272178,-0.414184 z" />
    <path
       inkscape:connector-curvature="0"
       id="path4781"
       style="font-style:normal;font-variant:normal;font-weight:normal;font-stretch:normal;font-size:11.83384037px;line-height:1.25;font-family:MasanaScript;-inkscape-font-specification:MasanaScript;letter-spacing:-0.03020303px;word-spacing:0px;fill:#333333;fill-opacity:1;stroke:none;stroke-width:0.18876804px;stroke-linecap:butt;stroke-linejoin:miter;stroke-opacity:1"
       d="m 35.410618,67.619935 c 0.01183,-0.532523 -0.02367,-0.852036 -0.02367,-0.852036 -0.01183,-0.378683 -0.591692,-0.30768 -0.556191,0.05917 0.071,0.639027 0.106505,1.609402 -0.828368,1.621236 -0.355016,0.01183 -0.497022,-0.118339 -0.520689,-0.437852 -0.01183,-0.319514 -0.01183,-0.970375 -0.0355,-1.17155 -0.02367,-0.366849 -0.568024,-0.343182 -0.544357,0.0355 0,0.201175 0,0.840203 0.02367,1.17155 0.08284,1.207052 1.668572,1.242554 2.260264,0.319514 0.55619,0.674529 1.739574,1.053212 2.638946,0.071 0.260345,-0.272178 -0.15384,-0.639027 -0.40235,-0.378683 -0.875705,0.958541 -1.976252,0.05917 -2.011753,-0.437852 z" />
    <path
       inkscape:connector-curvature="0"
       id="path4783"
       style="font-style:normal;font-variant:normal;font-weight:normal;font-stretch:normal;font-size:11.83384037px;line-height:1.25;font-family:MasanaScript;-inkscape-font-specification:MasanaScript;letter-spacing:-0.03020303px;word-spacing:0px;fill:#333333;fill-opacity:1;stroke:none;stroke-width:0.18876804px;stroke-linecap:butt;stroke-linejoin:miter;stroke-opacity:1"
       d="m 38.230151,67.087412 c -0.260344,0.260345 -0.485187,0.61536 -0.828369,0.970375 -0.260344,0.260345 0.15384,0.650861 0.402351,0.378683 0.402351,-0.414184 0.828369,-1.159716 1.301722,-1.159716 0.343182,0 0.508856,0.390516 0.556191,0.816535 0.01183,0.213009 0,0.426018 0,0.579858 -0.01183,0.378683 0.55619,0.390517 0.55619,0.01183 0,-0.272179 0.02367,-0.627194 0,-0.958541 0.201176,-0.21301 0.544357,-0.437852 0.958542,-0.21301 0.224842,0.130173 0.508855,0.579859 0.674528,0.792868 0.733699,0.899372 1.857913,1.005876 2.662615,0.130172 0.24851,-0.272178 -0.165674,-0.639027 -0.414185,-0.378683 -0.236677,0.260345 -0.544357,0.414185 -0.887538,0.414185 -0.662695,0.01183 -0.946707,-0.568025 -1.289889,-1.005877 -0.520689,-0.674529 -1.26622,-0.804701 -1.88158,-0.331347 -0.30768,-0.579859 -1.254387,-0.568025 -1.810578,-0.04734 z" />
    <path
       inkscape:connector-curvature="0"
       id="path4785"
       style="font-style:normal;font-variant:normal;font-weight:normal;font-stretch:normal;font-size:11.83384037px;line-height:1.25;font-family:MasanaScript;-inkscape-font-specification:MasanaScript;letter-spacing:-0.03020303px;word-spacing:0px;fill:#333333;fill-opacity:1;stroke:none;stroke-width:0.18876804px;stroke-linecap:butt;stroke-linejoin:miter;stroke-opacity:1"
       d="m 44.926377,67.122914 c 0.331347,-0.319514 0.769199,-0.355015 1.076879,-0.106505 0.343182,0.284012 0.343182,0.875704 -0.02367,1.218886 -0.366849,0.355015 -0.982209,0.30768 -1.23072,-0.071 -0.224843,-0.319514 -0.15384,-0.733698 0.177508,-1.041378 z m 1.893414,0.449686 c 0.02367,-0.366849 -0.177507,-0.757366 -0.46152,-0.982209 -0.568024,-0.46152 -1.32539,-0.331348 -1.822411,0.130172 -0.473354,0.449686 -0.662695,1.159717 -0.248511,1.763242 0.473354,0.710031 1.502898,0.698197 2.082756,0.165674 0.08284,-0.08284 0.165674,-0.177507 0.224843,-0.284012 0.556191,0.674529 1.751409,1.053212 2.650781,0.071 0.260344,-0.272178 -0.15384,-0.639027 -0.402351,-0.378683 -0.899372,0.994043 -2.047254,-0.01183 -2.023587,-0.485187 z" />
    <path
       inkscape:connector-curvature="0"
       id="path4787"
       style="font-style:normal;font-variant:normal;font-weight:normal;font-stretch:normal;font-size:11.83384037px;line-height:1.25;font-family:MasanaScript;-inkscape-font-specification:MasanaScript;letter-spacing:-0.03020303px;word-spacing:0px;fill:#333333;fill-opacity:1;stroke:none;stroke-width:0.18876804px;stroke-linecap:butt;stroke-linejoin:miter;stroke-opacity:1"
       d="m 51.337299,67.619935 c 0.01183,-0.532523 -0.02367,-0.852036 -0.02367,-0.852036 -0.01183,-0.378683 -0.591692,-0.30768 -0.55619,0.05917 0.071,0.639027 0.106505,1.609402 -0.828369,1.621236 -0.355015,0.01183 -0.497021,-0.118339 -0.520689,-0.437852 -0.01183,-0.319514 -0.01183,-0.970375 -0.0355,-1.17155 -0.02367,-0.366849 -0.568025,-0.343182 -0.544357,0.0355 0,0.201175 0,0.840203 0.02367,1.17155 0.08284,1.207052 1.668571,1.242554 2.260263,0.319514 0.556191,0.674529 1.739575,1.053212 2.638947,0.071 0.260344,-0.272178 -0.15384,-0.639027 -0.402351,-0.378683 -0.875704,0.958541 -1.976251,0.05917 -2.011753,-0.437852 z" />
    <path
       inkscape:connector-curvature="0"
       id="path4789"
       style="font-style:normal;font-variant:normal;font-weight:normal;font-stretch:normal;font-size:11.83384037px;line-height:1.25;font-family:MasanaScript;-inkscape-font-specification:MasanaScript;letter-spacing:-0.03020303px;word-spacing:0px;fill:#333333;fill-opacity:1;stroke:none;stroke-width:0.18876804px;stroke-linecap:butt;stroke-linejoin:miter;stroke-opacity:1"
       d="m 52.405421,64.211789 c -0.378683,-0.01183 -0.378683,0.556191 0,0.556191 h 0.899371 c 0,0.603525 0,1.242553 0,1.857912 0,0.532523 -0.02367,1.218886 0.02367,1.47923 0.248511,1.136049 1.597569,1.254388 2.437771,0.331348 0.260345,-0.272178 -0.15384,-0.639027 -0.40235,-0.378683 -0.591692,0.639028 -1.526566,0.591692 -1.491064,-0.46152 0,-0.09467 -0.01183,-1.550233 -0.02367,-2.792786 v -0.02367 h 1.78691 c 0.366849,0.01183 0.378683,-0.544356 0.01183,-0.544356 l -1.798744,-0.02367 v -1.254387 c 0,-0.366849 -0.568024,-0.366849 -0.568024,0 l 0.01183,1.254387 z" />
    <path
       inkscape:connector-curvature="0"
       id="path4791"
       style="font-style:normal;font-variant:normal;font-weight:normal;font-stretch:normal;font-size:11.83384037px;line-height:1.25;font-family:MasanaScript;-inkscape-font-specification:MasanaScript;letter-spacing:-0.03020303px;word-spacing:0px;fill:#333333;fill-opacity:1;stroke:none;stroke-width:0.18876804px;stroke-linecap:butt;stroke-linejoin:miter;stroke-opacity:1"
       d="m 56.125066,65.040158 c 0.224843,-0.295846 -0.236677,-0.627194 -0.449686,-0.319514 -0.08284,0.106505 -0.236677,0.437852 -0.331348,0.603526 -0.189341,0.343181 0.177508,0.497021 0.30768,0.319514 0.106505,-0.142006 0.189342,-0.224843 0.284012,-0.343182 0.106505,-0.142006 0.189342,-0.260344 0.189342,-0.260344 z m -0.224843,3.171469 c 0.177507,-0.272178 0.390517,-0.71003 0.414184,-1.230719 0.04734,-1.337224 -1.751408,-1.38456 -1.72774,-0.09467 0.01183,1.136049 1.076879,2.165593 2.201094,2.165593 0.520689,0 0.958541,-0.260345 1.278055,-0.61536 0.24851,-0.272178 -0.15384,-0.639027 -0.402351,-0.378683 -0.248511,0.284012 -0.544357,0.437852 -0.875704,0.437852 -0.331348,0 -0.639027,-0.118338 -0.887538,-0.284012 z m -0.402351,-0.402351 c -0.982208,-1.289888 0.284012,-1.72774 0.248511,-0.852036 0,0.260344 -0.09467,0.591692 -0.236677,0.852036 z" />
    <path
       inkscape:connector-curvature="0"
       id="path4793"
       style="font-style:normal;font-variant:normal;font-weight:normal;font-stretch:normal;font-size:11.83384037px;line-height:1.25;font-family:MasanaScript;-inkscape-font-specification:MasanaScript;letter-spacing:-0.03020303px;word-spacing:0px;fill:#333333;fill-opacity:1;stroke:none;stroke-width:0.18876804px;stroke-linecap:butt;stroke-linejoin:miter;stroke-opacity:1"
       d="m 62.71602,67.596267 c 0.331348,-0.497021 0.674529,-1.100547 0.745532,-1.893414 0.201176,-2.366768 -1.159716,-1.928916 -1.088713,0.426018 0.01183,0.331348 0.118338,0.946707 0.343181,1.467396 z m -1.159716,-0.532522 c -0.721864,0.04734 -1.076879,0.781033 -0.745532,1.17155 0.366849,0.449686 1.01771,0.201175 1.47923,-0.177508 -0.828369,-1.609402 -0.579858,-4.579696 0.828369,-4.485025 0.698197,0.04734 1.005876,0.958541 0.899372,2.177426 -0.08284,0.863871 -0.414185,1.715907 -0.994043,2.354934 0.224843,0.30768 0.532523,0.46152 0.875704,0.473354 0.378683,0.01183 0.781034,-0.15384 1.100548,-0.508855 0.24851,-0.272178 0.662695,0.118338 0.40235,0.378683 -0.508855,0.508855 -1.053212,0.71003 -1.597568,0.698196 -0.473354,-0.01183 -0.887538,-0.201175 -1.207052,-0.627193 -0.994043,0.804701 -1.976251,0.544357 -2.272097,-0.02367 -0.449686,-0.816535 0.08284,-1.905248 1.183384,-1.988085 0.378683,-0.0355 0.414184,0.520689 0.04733,0.556191 z" />
    <path
       inkscape:connector-curvature="0"
       id="path4795"
       style="font-style:normal;font-weight:normal;font-size:2.26521683px;line-height:0%;font-family:sans-serif;letter-spacing:-0.0238125px;word-spacing:0px;fill:#000000;fill-opacity:1;stroke:none;stroke-width:0.18876804px;stroke-linecap:butt;stroke-linejoin:miter;stroke-opacity:1"
       d="m 65.599346,68.211627 c 0.177507,-0.272178 0.378683,-0.71003 0.40235,-1.230719 0.04734,-1.337224 -1.78691,-1.38456 -1.739574,-0.09467 0.02367,0.437852 0.236677,0.911206 0.55619,1.313556 -0.24851,0.189342 -0.532523,0.272179 -0.662695,0.295846 -0.366849,0.071 -0.284012,0.627194 0.08284,0.556191 0.248511,-0.04734 0.627194,-0.177508 0.958541,-0.437852 0.343182,0.284012 0.745532,0.473353 1.136049,0.461519 0.544356,-0.01183 1.100547,-0.284012 1.431894,-0.639027 0.248511,-0.272178 -0.165673,-0.639027 -0.426018,-0.378683 -0.236677,0.284012 -0.674529,0.46152 -0.958541,0.46152 -0.343181,0 -0.55619,-0.130172 -0.781033,-0.30768 z m -0.414185,-0.402351 c -0.970375,-1.289888 0.295846,-1.72774 0.260345,-0.852036 -0.01183,0.260344 -0.106505,0.591692 -0.260345,0.852036 z" />
    <path
       inkscape:connector-curvature="0"
       id="path4797"
       style="font-style:normal;font-variant:normal;font-weight:normal;font-stretch:normal;font-size:11.83384037px;line-height:1.25;font-family:MasanaScript;-inkscape-font-specification:MasanaScript;letter-spacing:-0.03020303px;word-spacing:0px;fill:#333333;fill-opacity:1;stroke:none;stroke-width:0.18876804px;stroke-linecap:butt;stroke-linejoin:miter;stroke-opacity:1"
       d="m 67.979833,66.673228 c -0.04734,0.46152 -0.319514,1.01771 -0.662696,1.384559 -0.24851,0.284012 0.15384,0.662695 0.402351,0.378683 0.390517,-0.426018 0.650861,-0.982209 0.7692,-1.491064 0.04734,0.01183 0.09467,0.02367 0.130172,0.0355 0.55619,0.130172 1.313556,0.615359 1.065046,1.301722 -0.177508,0.46152 -0.686363,0.272178 -0.721865,0.118339 -0.09467,-0.355016 -0.650861,-0.21301 -0.544356,0.142006 0.201175,0.804701 1.455562,0.792867 1.78691,-0.071 0.165673,-0.437853 0.09467,-1.100548 -0.544357,-1.609403 -0.331348,-0.272178 -0.828369,-0.449686 -1.254387,-0.485187 -0.201175,-0.02367 -0.402351,0.05917 -0.426018,0.295845 z" />
    <path
       inkscape:connector-curvature="0"
       id="path4799"
       style="font-style:normal;font-variant:normal;font-weight:normal;font-stretch:normal;font-size:11.83384037px;line-height:1.25;font-family:MasanaScript;-inkscape-font-specification:MasanaScript;letter-spacing:-0.03020303px;word-spacing:0px;fill:#333333;fill-opacity:1;stroke:none;stroke-width:0.18876804px;stroke-linecap:butt;stroke-linejoin:miter;stroke-opacity:1"
       d="m 75.762494,70.389054 c -0.02367,0.745532 -0.09467,1.455562 -0.260344,1.952583 -0.118339,0.378683 -0.733698,1.739575 -1.017711,0.544357 -0.142006,-0.568024 0.236677,-1.680405 1.278055,-2.49694 z m 0.355015,-3.064965 c -0.532522,-1.857913 -3.289807,-0.852036 -2.769118,0.781033 0.366849,1.159717 1.644904,1.171551 2.354934,0.568025 0.0355,0.378683 0.04733,0.603526 0.05917,1.029544 -2.402269,1.491064 -2.177426,4.449524 -0.840203,4.212847 1.195218,-0.213009 1.38456,-2.567943 1.38456,-3.8815 0.24851,-0.130172 0.508855,-0.24851 0.792867,-0.331347 0.355015,-0.118338 0.189342,-0.650861 -0.177507,-0.544357 -0.21301,0.08284 -0.426019,0.15384 -0.61536,0.248511 -0.0355,-1.01771 -0.071,-1.704073 -0.189343,-2.082756 z m -2.236595,0.61536 c -0.15384,-0.485188 0.390516,-1.136049 0.946707,-1.07688 0.40235,0.0355 0.662695,0.248511 0.757366,0.603526 0.260344,0.946707 -1.360892,1.562067 -1.704073,0.473354 z" />
    <path
       inkscape:connector-curvature="0"
       id="path4801"
       style="font-style:normal;font-variant:normal;font-weight:normal;font-stretch:normal;font-size:11.83384037px;line-height:1.25;font-family:MasanaScript;-inkscape-font-specification:MasanaScript;letter-spacing:-0.03020303px;word-spacing:0px;fill:#333333;fill-opacity:1;stroke:none;stroke-width:0.18876804px;stroke-linecap:butt;stroke-linejoin:miter;stroke-opacity:1"
       d="m 77.166587,67.809276 c -0.01183,-0.366849 0.236676,-0.650861 0.603526,-0.721864 0.437852,-0.08284 0.875704,0.284012 0.875704,0.698197 0,0.426018 -0.473354,0.792867 -0.911206,0.686363 -0.343181,-0.08284 -0.556191,-0.319514 -0.568024,-0.662696 z m 1.917082,-0.544356 c -0.260345,-0.508855 -0.840203,-0.828369 -1.420061,-0.721864 -0.61536,0.118338 -1.07688,0.627193 -1.053212,1.278054 0.04734,1.680406 2.55611,1.5384 2.591611,0 0.520689,-0.01183 0.816535,-0.177507 1.278055,-0.532522 0.284012,-0.224843 -0.05917,-0.662696 -0.355015,-0.437853 -0.378683,0.30768 -0.556191,0.414185 -1.041378,0.414185 z" />
    <path
       inkscape:connector-curvature="0"
       id="path4803"
       style="font-style:normal;font-variant:normal;font-weight:normal;font-stretch:normal;font-size:11.83384037px;line-height:1.25;font-family:MasanaScript;-inkscape-font-specification:MasanaScript;letter-spacing:-0.03020303px;word-spacing:0px;fill:#333333;fill-opacity:1;stroke:none;stroke-width:0.18876804px;stroke-linecap:butt;stroke-linejoin:miter;stroke-opacity:1"
       d="m 82.613975,67.619935 c 0.01183,-0.532523 -0.02367,-0.852036 -0.02367,-0.852036 -0.01183,-0.378683 -0.591692,-0.30768 -0.556191,0.05917 0.071,0.639027 0.106505,1.609402 -0.828369,1.621236 -0.355015,0.01183 -0.497021,-0.118339 -0.520689,-0.437852 -0.01183,-0.319514 -0.01183,-0.970375 -0.0355,-1.17155 -0.02367,-0.366849 -0.568025,-0.343182 -0.544357,0.0355 0,0.201175 0,0.840203 0.02367,1.17155 0.08284,1.207052 1.668571,1.242554 2.260263,0.319514 0.556191,0.674529 1.739575,1.053212 2.638947,0.071 0.260344,-0.272178 -0.15384,-0.639027 -0.402351,-0.378683 -0.875704,0.958541 -1.976251,0.05917 -2.011753,-0.437852 z" />
    <path
       inkscape:connector-curvature="0"
       id="path4805"
       style="font-style:normal;font-variant:normal;font-weight:normal;font-stretch:normal;font-size:11.83384037px;line-height:1.25;font-family:MasanaScript;-inkscape-font-specification:MasanaScript;letter-spacing:-0.03020303px;word-spacing:0px;fill:#333333;fill-opacity:1;stroke:none;stroke-width:0.18876804px;stroke-linecap:butt;stroke-linejoin:miter;stroke-opacity:1"
       d="m 86.995576,67.099246 c -0.05917,-0.130172 -0.15384,-0.165674 -0.284012,-0.177508 -0.30768,-0.0355 -0.745532,-0.118338 -1.005877,-0.272178 -0.08284,-0.0355 -0.165673,-0.05917 -0.272178,-0.02367 -0.09467,0.0355 -0.130172,0.118339 -0.165674,0.201176 -0.118338,0.378683 -0.426018,0.958541 -0.674529,1.230719 -0.24851,0.284012 0.165674,0.662695 0.402351,0.378683 0.260344,-0.272178 0.579858,-0.816535 0.71003,-1.159716 0.177508,0.08284 0.591692,0.142006 0.804701,0.177507 0.01183,0.02367 0.01183,0.05917 0.02367,0.08284 0.189342,0.7692 0.544357,1.514732 1.431895,1.514732 0.532523,0 0.958541,-0.260345 1.278055,-0.61536 0.24851,-0.272178 -0.15384,-0.639027 -0.414185,-0.378683 -0.24851,0.272178 -0.473353,0.46152 -0.804701,0.46152 -0.804701,0 -0.840203,-1.053212 -1.029544,-1.420061 z" />
    <path
       inkscape:connector-curvature="0"
       id="path4807"
       style="font-style:normal;font-variant:normal;font-weight:normal;font-stretch:normal;font-size:11.83384037px;line-height:1.25;font-family:MasanaScript;-inkscape-font-specification:MasanaScript;letter-spacing:-0.03020303px;word-spacing:0px;fill:#333333;fill-opacity:1;stroke:none;stroke-width:0.18876804px;stroke-linecap:butt;stroke-linejoin:miter;stroke-opacity:1"
       d="m 91.644732,68.519307 c 0.01183,-1.242553 0.757366,-1.360892 0.899372,-1.360892 0.30768,-0.01183 0.828369,0.473354 0.781034,1.491064 -0.01183,0.165674 0.106504,0.284012 0.272178,0.284012 0.130172,0 0.272178,-0.071 0.284012,-0.24851 0.02367,-0.201176 0.02367,-0.402351 0.04734,-0.591692 0.189341,-1.621236 1.337224,-0.61536 1.976251,-0.02367 0.875704,0.840203 2.106423,1.443728 3.088632,0.366849 0.248511,-0.272178 -0.15384,-0.639027 -0.414184,-0.378683 -0.236677,0.260345 -0.520689,0.390517 -0.852037,0.390517 -1.278054,-0.01183 -1.88158,-1.798744 -3.171469,-1.775076 -0.508855,0.02367 -0.792867,0.24851 -0.958541,0.568024 -0.224843,-0.437852 -0.61536,-0.650861 -1.065046,-0.639027 -0.295846,0 -0.840202,0.118338 -1.159716,0.662695 -0.390517,-0.674529 -1.195218,-0.698197 -1.739575,-0.177508 -0.272178,0.260345 -0.497021,0.61536 -0.840202,0.970375 -0.260345,0.260345 0.15384,0.650861 0.40235,0.378683 0.402351,-0.414184 0.840203,-1.159716 1.301723,-1.159716 0.46152,-0.01183 0.603526,0.686362 0.591692,1.242553 -0.01183,0.201175 0.02367,0.414184 0.284012,0.414184 0.272178,0 0.272178,-0.213009 0.272178,-0.414184 z" />
    <path
       inkscape:connector-curvature="0"
       id="path4809"
       style="font-style:normal;font-variant:normal;font-weight:normal;font-stretch:normal;font-size:11.83384037px;line-height:1.25;font-family:MasanaScript;-inkscape-font-specification:MasanaScript;letter-spacing:-0.03020303px;word-spacing:0px;fill:#333333;fill-opacity:1;stroke:none;stroke-width:0.18876804px;stroke-linecap:butt;stroke-linejoin:miter;stroke-opacity:1"
       d="m 99.119217,68.211627 c 0.177508,-0.272178 0.390517,-0.71003 0.414184,-1.230719 0.04734,-1.337224 -1.751408,-1.38456 -1.72774,-0.09467 0.01183,1.136049 1.076879,2.165593 2.201099,2.165593 0.52068,0 0.95854,-0.260345 1.27805,-0.61536 0.24851,-0.272178 -0.15384,-0.639027 -0.40235,-0.378683 -0.24851,0.284012 -0.54436,0.437852 -0.8757,0.437852 -0.331352,0 -0.639032,-0.118338 -0.887543,-0.284012 z m -0.402351,-0.402351 c -0.982208,-1.289888 0.284013,-1.72774 0.248511,-0.852036 0,0.260344 -0.09467,0.591692 -0.236677,0.852036 z" />
    <path
       inkscape:connector-curvature="0"
       id="path4811"
       style="font-style:normal;font-variant:normal;font-weight:normal;font-stretch:normal;font-size:11.83384037px;line-height:1.25;font-family:MasanaScript;-inkscape-font-specification:MasanaScript;letter-spacing:-0.03020303px;word-spacing:0px;fill:#333333;fill-opacity:1;stroke:none;stroke-width:0.18876804px;stroke-linecap:butt;stroke-linejoin:miter;stroke-opacity:1"
       d="m 99.93236,64.211789 c -0.378683,-0.01183 -0.378683,0.556191 0,0.556191 h 0.89937 c 0,0.603525 0,1.242553 0,1.857912 0,0.532523 -0.0237,1.218886 0.0237,1.47923 0.24851,1.136049 1.59757,1.254388 2.43777,0.331348 0.26035,-0.272178 -0.15384,-0.639027 -0.40235,-0.378683 -0.59169,0.639028 -1.52657,0.591692 -1.49106,-0.46152 0,-0.09467 -0.0118,-1.550233 -0.0237,-2.792786 v -0.02367 h 1.78691 c 0.36685,0.01183 0.37868,-0.544356 0.0118,-0.544356 l -1.79874,-0.02367 v -1.254387 c 0,-0.366849 -0.56803,-0.366849 -0.56803,0 l 0.0118,1.254387 z" />
    <path
       inkscape:connector-curvature="0"
       id="path4813"
       style="font-style:normal;font-variant:normal;font-weight:normal;font-stretch:normal;font-size:11.83384037px;line-height:1.25;font-family:MasanaScript;-inkscape-font-specification:MasanaScript;letter-spacing:-0.03020303px;word-spacing:0px;fill:#333333;fill-opacity:1;stroke:none;stroke-width:0.18876804px;stroke-linecap:butt;stroke-linejoin:miter;stroke-opacity:1"
       d="m 103.51,66.673228 c -0.0473,0.46152 -0.31951,1.01771 -0.6627,1.384559 -0.24851,0.284012 0.15384,0.662695 0.40235,0.378683 0.39052,-0.426018 0.65087,-0.982209 0.7692,-1.491064 0.0473,0.01183 0.0947,0.02367 0.13018,0.0355 0.55619,0.130172 1.31355,0.615359 1.06504,1.301722 -0.17751,0.46152 -0.68636,0.272178 -0.72186,0.118339 -0.0947,-0.355016 -0.65086,-0.21301 -0.54436,0.142006 0.20118,0.804701 1.45556,0.792867 1.78691,-0.071 0.16567,-0.437853 0.0947,-1.100548 -0.54436,-1.609403 -0.33134,-0.272178 -0.82836,-0.449686 -1.25438,-0.485187 -0.20118,-0.02367 -0.40235,0.05917 -0.42602,0.295845 z" />
    <path
       inkscape:connector-curvature="0"
       id="path4816"
       style="font-style:normal;font-variant:normal;font-weight:800;font-stretch:normal;font-size:28.22222137px;line-height:1.25;font-family:Nunito;-inkscape-font-specification:'Nunito Ultra-Bold';letter-spacing:0px;word-spacing:0px;fill:#333333;fill-opacity:0.87843137;stroke:none;stroke-width:0.45313954"
       d="m 7.7339387,44.45337 q 1.7363281,0 5.2365453,-0.675238 1.515842,-0.303169 2.025716,-1.005968 0.523654,-0.7028 0.523654,-2.370226 v -5.0574 q 0,-1.047309 -0.35829,-1.557183 -0.344509,-0.509874 -1.226454,-0.509874 -0.468533,0 -2.632052,0 -2.1635204,-0.01378 -2.6458338,-0.01378 -0.689019,0 -1.0748697,0.413411 -0.3720703,0.413411 -0.3720703,1.005968 0,0.675239 0.4271918,1.061089 0.4409722,0.385851 1.1713324,0.385851 h 2.4666886 v 4.492404 q -1.6674264,0.413412 -3.3348526,0.413412 -5.8291014,0 -5.8291014,-6.931532 0,-3.389974 1.4607205,-5.264106 1.4607204,-1.874132 4.4648436,-1.874132 2.3013239,0 4.7128909,0.937066 0.303168,0.179145 0.633897,0.179145 0.633898,0 1.061089,-0.509874 0.427192,-0.509874 0.427192,-1.157552 0,-0.923286 -0.881944,-1.44694 -1.185113,-0.647678 -2.824978,-1.005968 -1.6398657,-0.37207 -3.348633,-0.37207 -2.563151,0 -4.5750867,0.813042 -1.9981553,0.813043 -3.25217003,2.259983 -1.24023437,1.43316 -1.87413187,3.307291 -0.6338976,1.860352 -0.6338976,4.051433 0,5.112521 2.72851557,7.772135 2.72851553,2.659613 7.52408833,2.659613 z" />
    <path
       inkscape:connector-curvature="0"
       id="path4818"
       style="font-style:normal;font-variant:normal;font-weight:800;font-stretch:normal;font-size:28.22222137px;line-height:1.25;font-family:Nunito;-inkscape-font-specification:'Nunito Ultra-Bold';letter-spacing:0px;word-spacing:0px;fill:#333333;fill-opacity:0.87843137;stroke:none;stroke-width:0.45313954"
       d="m 28.018661,41.146079 q -2.632053,0 -3.872287,-1.763889 -1.226454,-1.763889 -1.226454,-5.360568 0,-3.5829 1.226454,-5.346788 1.226454,-1.77767 3.872287,-1.77767 2.645833,0 3.872287,1.77767 1.226454,1.763888 1.226454,5.346788 0,3.596679 -1.240234,5.360568 -1.226454,1.763889 -3.858507,1.763889 z m 0,3.307291 q 4.726671,0 7.2347,-2.714735 2.50803,-2.728515 2.50803,-7.717013 0,-4.988499 -2.50803,-7.703234 -2.508029,-2.728515 -7.2347,-2.728515 -4.726671,0 -7.2347,2.728515 -2.50803,2.714735 -2.50803,7.703234 0,4.988498 2.50803,7.717013 2.508029,2.714735 7.2347,2.714735 z" />
    <path
       inkscape:connector-curvature="0"
       id="path4820"
       style="font-style:normal;font-variant:normal;font-weight:800;font-stretch:normal;font-size:28.22222137px;line-height:1.25;font-family:Nunito;-inkscape-font-specification:'Nunito Ultra-Bold';letter-spacing:0px;word-spacing:0px;fill:#333333;fill-opacity:0.87843137;stroke:none;stroke-width:0.45313954"
       d="m 46.126083,22.955975 q 0.675239,0 1.488281,-0.964626 l 1.984375,-2.618273 2.025716,2.687174 q 0.606337,0.868164 1.405599,0.868164 0.427192,0 0.73036,-0.275607 0.316949,-0.275608 0.316949,-0.689019 0,-0.440972 -0.482313,-1.08865 l -2.466689,-3.197049 q -0.675238,-0.854384 -1.529622,-0.854384 -0.840603,0 -1.543403,0.854384 l -2.54937,3.293511 q -0.454753,0.620117 -0.454753,1.019749 0,0.427191 0.316949,0.702799 0.316949,0.261827 0.757921,0.261827 z m 3.527778,21.497395 q 1.80523,0 3.321072,-0.454752 1.515842,-0.454753 2.645833,-1.336697 1.143771,-0.881945 1.777669,-2.273763 0.647678,-1.405599 0.647678,-3.169488 V 26.37351 q 0,-1.005968 -0.647678,-1.653646 -0.647678,-0.661458 -1.557183,-0.661458 -0.909505,0 -1.570964,0.661458 -0.647678,0.647678 -0.647678,1.653646 v 10.748697 q 0,1.019749 -0.344509,1.819011 -0.330729,0.799262 -0.909505,1.267795 -0.564996,0.468533 -1.254015,0.702799 -0.689019,0.234267 -1.46072,0.234267 -1.626085,0 -2.783637,-1.019748 -1.157553,-1.019749 -1.157553,-3.004124 V 26.37351 q -0.01378,-1.005968 -0.675238,-1.653646 -0.647678,-0.661458 -1.557183,-0.661458 -0.909506,0 -1.557183,0.661458 -0.647678,0.647678 -0.647678,1.653646 v 10.84516 q 0,1.777669 0.633897,3.183268 0.647678,1.391819 1.777669,2.273763 1.143772,0.868164 2.659614,1.322917 1.515842,0.454752 3.307292,0.454752 z" />
    <path
       inkscape:connector-curvature="0"
       id="path4822"
       style="font-style:normal;font-variant:normal;font-weight:800;font-stretch:normal;font-size:28.22222137px;line-height:1.25;font-family:Nunito;-inkscape-font-specification:'Nunito Ultra-Bold';letter-spacing:0px;word-spacing:0px;fill:#333333;fill-opacity:0.87843137;stroke:none;stroke-width:0.45313954"
       d="m 68.477864,44.039959 q 0.909505,0 1.557183,-0.661458 0.661459,-0.661459 0.661459,-1.667427 V 27.46216 h 4.161675 q 0.73036,0 1.212673,-0.496094 0.482314,-0.509874 0.482314,-1.185113 0,-0.675238 -0.482314,-1.171332 -0.482313,-0.509874 -1.212673,-0.509874 H 62.069987 q -0.730361,0 -1.226454,0.509874 -0.482314,0.496094 -0.482314,1.171332 0,0.675239 0.482314,1.185113 0.496093,0.496094 1.226454,0.496094 h 4.203016 v 14.248914 q 0,1.005968 0.647678,1.667427 0.661458,0.661458 1.557183,0.661458 z" />
    <path
       inkscape:connector-curvature="0"
       id="path4824"
       style="font-style:normal;font-variant:normal;font-weight:800;font-stretch:normal;font-size:28.22222137px;line-height:1.25;font-family:Nunito;-inkscape-font-specification:'Nunito Ultra-Bold';letter-spacing:0px;word-spacing:0px;fill:#333333;fill-opacity:0.87843137;stroke:none;stroke-width:0.45313954"
       d="m 87.246741,44.45337 q 1.80523,0 3.321072,-0.454752 1.515842,-0.454753 2.645833,-1.336697 1.143772,-0.881945 1.777669,-2.273763 0.647678,-1.405599 0.647678,-3.169488 V 26.37351 q 0,-1.005968 -0.647678,-1.653646 -0.647678,-0.661458 -1.557183,-0.661458 -0.909505,0 -1.570963,0.661458 -0.647678,0.647678 -0.647678,1.653646 v 10.748697 q 0,1.019749 -0.34451,1.819011 -0.330729,0.799262 -0.909505,1.267795 -0.564996,0.468533 -1.254015,0.702799 -0.689019,0.234267 -1.46072,0.234267 -1.626085,0 -2.783637,-1.019748 -1.157552,-1.019749 -1.157552,-3.004124 V 26.37351 q -0.01378,-1.005968 -0.675239,-1.653646 -0.647678,-0.661458 -1.557183,-0.661458 -0.909505,0 -1.557183,0.661458 -0.647678,0.647678 -0.647678,1.653646 v 10.84516 q 0,1.777669 0.633897,3.183268 0.647678,1.391819 1.77767,2.273763 1.143771,0.868164 2.659613,1.322917 1.515842,0.454752 3.307292,0.454752 z" />
    <path
       inkscape:connector-curvature="0"
       id="path4826"
       style="font-style:normal;font-variant:normal;font-weight:normal;font-stretch:normal;font-size:29.00093079px;line-height:1.25;font-family:Bariol;-inkscape-font-specification:Bariol;letter-spacing:0px;word-spacing:0px;fill:#d45500;fill-opacity:0.87843137;stroke:none;stroke-width:0.45313954"
       d="m 102.10199,36.446969 q 0.0551,0.551215 0.38586,0.868164 0.3445,0.303168 0.7717,0.303168 0.44097,0 0.7717,-0.303168 0.33073,-0.303169 0.39963,-0.868164 l 1.14377,-11.038086 q 0.0138,-0.124023 0.0138,-0.261827 0,-0.895725 -0.68902,-1.405599 -0.68902,-0.509874 -1.62608,-0.509874 -0.93707,0 -1.62609,0.509874 -0.68902,0.509874 -0.68902,1.405599 0,0.137804 0.0138,0.261827 z m 1.21268,7.675672 q 0.9095,0 1.51584,-0.606337 0.60634,-0.620117 0.60634,-1.4745 0,-0.895725 -0.62012,-1.474501 -0.62012,-0.592557 -1.50206,-0.592557 -0.92329,0 -1.52962,0.620118 -0.59256,0.606336 -0.59256,1.44694 0,0.881944 0.60634,1.488281 0.62011,0.592556 1.51584,0.592556 z" />
  </g>
</svg>
