<?xml version="1.0" encoding="UTF-8"?>
<!-- Created with Inkscape (http://www.inkscape.org/) -->
<svg width="108.4mm" height="43.347mm" version="1.1" viewBox="0 0 108.4 43.347" xmlns="http://www.w3.org/2000/svg" xmlns:cc="http://creativecommons.org/ns#" xmlns:dc="http://purl.org/dc/elements/1.1/" xmlns:rdf="http://www.w3.org/1999/02/22-rdf-syntax-ns#">
 <metadata>
  <rdf:RDF>
   <cc:Work rdf:about="">
    <dc:format>image/svg+xml</dc:format>
    <dc:type rdf:resource="http://purl.org/dc/dcmitype/StillImage"/>
    <dc:title/>
   </cc:Work>
  </rdf:RDF>
 </metadata>
 <g transform="translate(-32.932 -64.184)">
  <g fill-opacity=".87843" stroke-width=".45314" aria-label="GOÛTU!">
   <g fill="#333" fill-opacity=".87843">
    <path d="m43.251 91.813q1.7363 0 5.2365-0.67524 1.5158-0.30317 2.0257-1.006 0.52365-0.7028 0.52365-2.3702v-5.0574q0-1.0473-0.35829-1.5572-0.34451-0.50988-1.2265-0.50988-0.46853 0-2.6321 0-2.1635-0.01378-2.6458-0.01378-0.68902 0-1.0749 0.41341-0.37207 0.41341-0.37207 1.006 0 0.67524 0.42719 1.0611 0.44097 0.38585 1.1713 0.38585h2.4667v4.4924q-1.6674 0.41341-3.3349 0.41341-5.8291 0-5.8291-6.9315 0-3.39 1.4607-5.2641 1.4607-1.8741 4.4648-1.8741 2.3013 0 4.7129 0.93707 0.30317 0.17914 0.6339 0.17914 0.6339 0 1.0611-0.50987 0.42719-0.50988 0.42719-1.1576 0-0.92328-0.88194-1.4469-1.1851-0.64768-2.825-1.006-1.6399-0.37207-3.3486-0.37207-2.5632 0-4.5751 0.81304-1.9982 0.81304-3.2522 2.26-1.2402 1.4332-1.8741 3.3073-0.6339 1.8604-0.6339 4.0514 0 5.1125 2.7285 7.7721 2.7285 2.6596 7.5241 2.6596z"/>
    <path d="m63.536 88.506q-2.6321 0-3.8723-1.7639-1.2265-1.7639-1.2265-5.3606 0-3.5829 1.2265-5.3468 1.2265-1.7777 3.8723-1.7777t3.8723 1.7777q1.2265 1.7639 1.2265 5.3468 0 3.5967-1.2402 5.3606-1.2265 1.7639-3.8585 1.7639zm0 3.3073q4.7267 0 7.2347-2.7147 2.508-2.7285 2.508-7.717t-2.508-7.7032q-2.508-2.7285-7.2347-2.7285t-7.2347 2.7285q-2.508 2.7147-2.508 7.7032t2.508 7.717q2.508 2.7147 7.2347 2.7147z"/>
    <path d="m81.643 70.316q0.67524 0 1.4883-0.96463l1.9844-2.6183 2.0257 2.6872q0.60634 0.86816 1.4056 0.86816 0.42719 0 0.73036-0.27561 0.31695-0.27561 0.31695-0.68902 0-0.44097-0.48231-1.0886l-2.4667-3.197q-0.67524-0.85438-1.5296-0.85438-0.8406 0-1.5434 0.85438l-2.5494 3.2935q-0.45475 0.62012-0.45475 1.0197 0 0.42719 0.31695 0.7028 0.31695 0.26183 0.75792 0.26183zm3.5278 21.497q1.8052 0 3.3211-0.45475 1.5158-0.45475 2.6458-1.3367 1.1438-0.88194 1.7777-2.2738 0.64768-1.4056 0.64768-3.1695v-10.845q0-1.006-0.64768-1.6536-0.64768-0.66146-1.5572-0.66146t-1.571 0.66146q-0.64768 0.64768-0.64768 1.6536v10.749q0 1.0197-0.34451 1.819-0.33073 0.79926-0.9095 1.2678-0.565 0.46853-1.254 0.7028-0.68902 0.23427-1.4607 0.23427-1.6261 0-2.7836-1.0197t-1.1576-3.0041v-10.749q-0.01378-1.006-0.67524-1.6536-0.64768-0.66146-1.5572-0.66146t-1.5572 0.66146q-0.64768 0.64768-0.64768 1.6536v10.845q0 1.7777 0.6339 3.1833 0.64768 1.3918 1.7777 2.2738 1.1438 0.86816 2.6596 1.3229 1.5158 0.45475 3.3073 0.45475z"/>
    <path d="m103.99 91.4q0.9095 0 1.5572-0.66146 0.66146-0.66146 0.66146-1.6674v-14.249h4.1617q0.73036 0 1.2127-0.49609 0.48231-0.50987 0.48231-1.1851t-0.48231-1.1713q-0.48232-0.50987-1.2127-0.50987h-12.788q-0.73036 0-1.2265 0.50987-0.48231 0.49609-0.48231 1.1713t0.48231 1.1851q0.49609 0.49609 1.2265 0.49609h4.203v14.249q0 1.006 0.64767 1.6674 0.66146 0.66146 1.5572 0.66146z"/>
    <path d="m122.76 91.813q1.8052 0 3.3211-0.45475 1.5158-0.45475 2.6458-1.3367 1.1438-0.88194 1.7777-2.2738 0.64768-1.4056 0.64768-3.1695v-10.845q0-1.006-0.64768-1.6536-0.64768-0.66146-1.5572-0.66146-0.9095 0-1.571 0.66146-0.64768 0.64768-0.64768 1.6536v10.749q0 1.0197-0.34451 1.819-0.33073 0.79926-0.9095 1.2678-0.565 0.46853-1.254 0.7028-0.68902 0.23427-1.4607 0.23427-1.6261 0-2.7836-1.0197-1.1576-1.0197-1.1576-3.0041v-10.749q-0.0138-1.006-0.67523-1.6536-0.64768-0.66146-1.5572-0.66146-0.9095 0-1.5572 0.66146-0.64768 0.64768-0.64768 1.6536v10.845q0 1.7777 0.6339 3.1833 0.64768 1.3918 1.7777 2.2738 1.1438 0.86816 2.6596 1.3229 1.5158 0.45475 3.3073 0.45475z"/>
   </g>
   <path d="m137.62 83.807q0.0551 0.55122 0.38585 0.86816 0.34451 0.30317 0.7717 0.30317 0.44097 0 0.7717-0.30317 0.33073-0.30317 0.39963-0.86816l1.1438-11.038q0.0138-0.12402 0.0138-0.26183 0-0.89572-0.68902-1.4056-0.68902-0.50987-1.6261-0.50987-0.93707 0-1.6261 0.50987-0.68902 0.50988-0.68902 1.4056 0 0.1378 0.0138 0.26183zm1.2127 7.6757q0.90951 0 1.5158-0.60634 0.60634-0.62012 0.60634-1.4745 0-0.89572-0.62012-1.4745-0.62012-0.59256-1.5021-0.59256-0.92329 0-1.5296 0.62012-0.59256 0.60634-0.59256 1.4469 0 0.88194 0.60634 1.4883 0.62012 0.59256 1.5158 0.59256z" fill="#d45500"/>
  </g>
  <g enable-background="new" opacity=".878" stroke-width=".18877px" aria-label="La communauté des gourmets">
   <g fill="#333">
    <path d="m34.269 101.62c-0.54436 0.81653-1.1597-0.16568-0.48519-0.13017 0.16567 0.0118 0.33135 0.0592 0.49702 0.11833zm2.4496-7.053c0.31951 0.18934 0.60353-0.29585 0.28401-0.48519-0.22484-0.13017-1.4082-0.67453-2.3786 0.26034-0.79287 0.7692-0.63903 1.9526-0.44969 2.8993 0.18934 1.0059 0.63903 2.7455 0.33135 3.8697-1.8816-0.78103-2.0118 1.4082-0.7337 1.3609 0.46152 0 0.78103-0.23668 1.0059-0.5917 0.74553 0.47336 2.0591 1.3254 3.3371 0.16568 0.27218-0.24851-0.15384-0.6627-0.40235-0.39052-0.72186 0.8047-1.9763 0.15384-2.7218-0.29585 0.29585-1.0177 0.11834-2.4378-0.01183-3.0295-0.21301-0.94671-0.78103-2.8046 0.02367-3.5857 0.68636-0.65086 1.5266-0.28401 1.7159-0.17751z"/>
    <path d="m38.55 100.72c0.33135-0.31952 0.7692-0.35502 1.0769-0.10651 0.34318 0.28401 0.34318 0.87571-0.02367 1.2189-0.36685 0.35501-0.98221 0.30768-1.2307-0.071-0.22484-0.31951-0.15384-0.73369 0.17751-1.0414zm1.8934 0.44968c0.02367-0.36685-0.17751-0.75736-0.46152-0.98221-0.56802-0.46152-1.3254-0.33134-1.8224 0.13018-0.47335 0.44968-0.6627 1.1597-0.24851 1.7632 0.47335 0.71003 1.5029 0.69819 2.0828 0.16567 0.08284-0.0828 0.16567-0.17751 0.22484-0.28401 0.55619 0.67453 1.7514 1.0532 2.6508 0.071 0.26034-0.27218-0.15384-0.63902-0.40235-0.37868-0.89937 0.99404-2.0473-0.0118-2.0236-0.48519z"/>
    <path d="m44.987 101.43c0.20118 1.7987 2.7928 1.7277 3.775 0.60352 0.24851-0.27218-0.15384-0.63902-0.41418-0.37868-0.94671 0.99404-2.6389 0.7337-2.7928-0.26034-0.11834-0.79287 0.6982-1.2662 1.2071-0.87571 0.29585 0.22484 0.63903-0.18934 0.35502-0.42602-0.93487-0.7692-2.2721 0.0473-2.1301 1.3372z"/>
    <path d="m48.876 101.42c-0.01183-0.36685 0.22484-0.65086 0.60353-0.72186 0.43785-0.0828 0.8757 0.28401 0.8757 0.6982 0 0.41418-0.47335 0.79286-0.91121 0.68636-0.34318-0.0828-0.55619-0.33135-0.56802-0.6627zm1.9289-0.53252c-0.24851-0.52069-0.8402-0.85204-1.4201-0.74553-0.62719 0.11834-1.0769 0.63903-1.065 1.2899 0.05917 1.6567 2.4969 1.5384 2.5916 0.0473 0.43785 0.0355 0.74553-0.13017 1.1597-0.44968 0.74553-0.57986 0.81654 0.9112 0.81654 1.2189 0 0.071 0.02367 0.11834 0.05917 0.16568 0.13017 0.18934 0.49702 0.16567 0.50886-0.14201 0.02367-0.36685 0.11834-1.4082 0.72186-1.4201 0.30768-0.0118 0.67453 0.36685 0.61536 1.3964 0 0.0828 0.02367 0.14201 0.04733 0.18934 0.05917 0.071 0.13017 0.10651 0.21301 0.10651 0.08284 0.0118 0.16567-0.0118 0.22484-0.071 0.0355-0.0473 0.05917-0.0947 0.071-0.17751 0.05917-0.46152 0.0355-1.4556 0.6982-1.4556 0.27218 0 0.48519 0.44968 0.59169 0.63902 0.55619 1.0414 1.4201 1.7277 2.4969 0.55619 0.24851-0.27218-0.16567-0.63902-0.41418-0.37868-1.3609 1.4911-1.4437-1.3727-2.6744-1.3727-0.50886 0-0.79287 0.23668-0.95854 0.56803-0.18934-0.34318-0.49702-0.55619-0.91121-0.55619-0.31951 0-0.71003 0.13017-0.97038 0.63903-0.17751-0.36685-0.44968-0.5917-0.86387-0.57986-0.60353 0-0.75737 0.56802-1.2899 0.55619-0.09467 0-0.18934 0-0.24851-0.0237z"/>
    <path d="m61.512 102.12c0.01183-1.2426 0.75737-1.3609 0.89937-1.3609 0.30768-0.0118 0.82837 0.47335 0.78103 1.4911-0.01183 0.16568 0.1065 0.28401 0.27218 0.28401 0.13017 0 0.27218-0.071 0.28401-0.24851 0.02367-0.20117 0.02367-0.40235 0.04734-0.59169 0.18934-1.6212 1.3372-0.61536 1.9763-0.0237 0.8757 0.84021 2.1064 1.4437 3.0886 0.36685 0.24851-0.27218-0.15384-0.63902-0.41418-0.37868-0.23668 0.26034-0.52069 0.39052-0.85204 0.39052-1.2781-0.0118-1.8816-1.7988-3.1715-1.7751-0.50886 0.0237-0.79287 0.24851-0.95854 0.56803-0.22484-0.43786-0.61536-0.65087-1.065-0.63903-0.29585 0-0.8402 0.11834-1.1597 0.66269-0.39052-0.67453-1.1952-0.69819-1.7396-0.1775-0.27218 0.26034-0.49702 0.61535-0.8402 0.97037-0.26034 0.26034 0.15384 0.65086 0.40235 0.37868 0.40235-0.41418 0.8402-1.1597 1.3017-1.1597 0.46152-0.0118 0.60353 0.68636 0.59169 1.2426-0.01183 0.20118 0.02367 0.41418 0.28401 0.41418 0.27218 0 0.27218-0.213 0.27218-0.41418z"/>
    <path d="m70.927 101.22c0.01183-0.53252-0.02367-0.85204-0.02367-0.85204-0.01183-0.37868-0.59169-0.30768-0.55619 0.0592 0.071 0.63903 0.1065 1.6094-0.82837 1.6212-0.35502 0.0118-0.49702-0.11834-0.52069-0.43786-0.01183-0.31951-0.01183-0.97037-0.0355-1.1716-0.02367-0.36684-0.56802-0.34318-0.54436 0.0355 0 0.20117 0 0.8402 0.02367 1.1716 0.08284 1.207 1.6686 1.2426 2.2603 0.31951 0.55619 0.67453 1.7396 1.0532 2.6389 0.071 0.26034-0.27218-0.15384-0.63902-0.40235-0.37868-0.8757 0.95854-1.9763 0.0592-2.0118-0.43785z"/>
    <path d="m73.747 100.69c-0.26034 0.26034-0.48519 0.61535-0.82837 0.97037-0.26034 0.26034 0.15384 0.65086 0.40235 0.37868 0.40235-0.41418 0.82837-1.1597 1.3017-1.1597 0.34318 0 0.50886 0.39051 0.55619 0.81653 0.01183 0.21301 0 0.42602 0 0.57986-0.01183 0.37868 0.55619 0.39052 0.55619 0.0118 0-0.27217 0.02367-0.62719 0-0.95854 0.20118-0.21301 0.54436-0.43785 0.95854-0.21301 0.22484 0.13018 0.50886 0.57986 0.67453 0.79287 0.7337 0.89937 1.8579 1.0059 2.6626 0.13017 0.24851-0.27218-0.16567-0.63902-0.41418-0.37868-0.23668 0.26034-0.54436 0.41418-0.88754 0.41418-0.6627 0.0118-0.94671-0.56802-1.2899-1.0059-0.52069-0.67453-1.2662-0.8047-1.8816-0.33135-0.30768-0.57986-1.2544-0.56802-1.8106-0.0473z"/>
    <path d="m80.443 100.72c0.33135-0.31952 0.7692-0.35502 1.0769-0.10651 0.34318 0.28401 0.34318 0.87571-0.02367 1.2189-0.36685 0.35501-0.98221 0.30768-1.2307-0.071-0.22484-0.31951-0.15384-0.73369 0.17751-1.0414zm1.8934 0.44968c0.02367-0.36685-0.17751-0.75736-0.46152-0.98221-0.56802-0.46152-1.3254-0.33134-1.8224 0.13018-0.47335 0.44968-0.6627 1.1597-0.24851 1.7632 0.47335 0.71003 1.5029 0.69819 2.0828 0.16567 0.08284-0.0828 0.16567-0.17751 0.22484-0.28401 0.55619 0.67453 1.7514 1.0532 2.6508 0.071 0.26034-0.27218-0.15384-0.63902-0.40235-0.37868-0.89937 0.99404-2.0473-0.0118-2.0236-0.48519z"/>
    <path d="m86.854 101.22c0.01183-0.53252-0.02367-0.85204-0.02367-0.85204-0.01183-0.37868-0.59169-0.30768-0.55619 0.0592 0.071 0.63903 0.1065 1.6094-0.82837 1.6212-0.35502 0.0118-0.49702-0.11834-0.52069-0.43786-0.01183-0.31951-0.01183-0.97037-0.0355-1.1716-0.02367-0.36684-0.56802-0.34318-0.54436 0.0355 0 0.20117 0 0.8402 0.02367 1.1716 0.08284 1.207 1.6686 1.2426 2.2603 0.31951 0.55619 0.67453 1.7396 1.0532 2.6389 0.071 0.26034-0.27218-0.15384-0.63902-0.40235-0.37868-0.8757 0.95854-1.9763 0.0592-2.0118-0.43785z"/>
    <path d="m87.922 97.813c-0.37868-0.01183-0.37868 0.55619 0 0.55619h0.89937v1.8579c0 0.53252-0.02367 1.2189 0.02367 1.4792 0.24851 1.136 1.5976 1.2544 2.4378 0.33134 0.26034-0.27218-0.15384-0.63902-0.40235-0.37868-0.59169 0.63903-1.5266 0.59169-1.4911-0.46152 0-0.0947-0.01183-1.5502-0.02367-2.7928v-0.02367h1.7869c0.36685 0.01183 0.37868-0.54436 0.01183-0.54436l-1.7987-0.02367v-1.2544c0-0.36685-0.56802-0.36685-0.56802 0l0.01183 1.2544z"/>
    <path d="m91.642 98.642c0.22484-0.29585-0.23668-0.62719-0.44969-0.31951-0.08284 0.1065-0.23668 0.43785-0.33135 0.60353-0.18934 0.34318 0.17751 0.49702 0.30768 0.31951 0.1065-0.14201 0.18934-0.22484 0.28401-0.34318 0.1065-0.14201 0.18934-0.26034 0.18934-0.26034zm-0.22484 3.1715c0.17751-0.27218 0.39052-0.71003 0.41418-1.2307 0.04734-1.3372-1.7514-1.3846-1.7277-0.0947 0.01183 1.136 1.0769 2.1656 2.2011 2.1656 0.52069 0 0.95854-0.26034 1.2781-0.61536 0.24851-0.27218-0.15384-0.63902-0.40235-0.37868-0.24851 0.28401-0.54436 0.43785-0.8757 0.43785s-0.63903-0.11834-0.88754-0.28401zm-0.40235-0.40235c-0.98221-1.2899 0.28401-1.7277 0.24851-0.85204 0 0.26035-0.09467 0.5917-0.23668 0.85204z"/>
    <path d="m98.233 101.2c0.33135-0.49702 0.67453-1.1006 0.74553-1.8934 0.20118-2.3668-1.1597-1.9289-1.0887 0.42602 0.01183 0.33135 0.11834 0.94671 0.34318 1.4674zm-1.1597-0.53252c-0.72186 0.0473-1.0769 0.78103-0.74553 1.1716 0.36685 0.44968 1.0177 0.20117 1.4792-0.17751-0.82837-1.6094-0.57986-4.5797 0.82837-4.485 0.6982 0.04733 1.0059 0.95854 0.89937 2.1774-0.08284 0.86387-0.41418 1.7159-0.99404 2.3549 0.22484 0.30768 0.53252 0.46152 0.8757 0.47335 0.37868 0.0118 0.78103-0.15384 1.1005-0.50886 0.24852-0.27217 0.6627 0.11834 0.40236 0.37869-0.50886 0.50885-1.0532 0.71003-1.5976 0.69819-0.47335-0.0118-0.88754-0.20117-1.2071-0.62719-0.99404 0.8047-1.9763 0.54436-2.2721-0.0237-0.44969-0.81653 0.08284-1.9052 1.1834-1.9881 0.37868-0.0355 0.41418 0.52069 0.04734 0.55619z"/>
   </g>
   <path d="m101.12 101.81c0.17751-0.27218 0.37868-0.71003 0.40235-1.2307 0.0473-1.3372-1.7869-1.3846-1.7396-0.0947 0.02367 0.43785 0.23668 0.91121 0.5562 1.3136-0.24852 0.18934-0.53253 0.27217-0.6627 0.29584-0.36685 0.071-0.28401 0.6272 0.08284 0.55619 0.24851-0.0473 0.62719-0.1775 0.95854-0.43785 0.34318 0.28401 0.74553 0.47335 1.136 0.46152 0.54435-0.0118 1.1005-0.28401 1.4319-0.63903 0.24851-0.27218-0.16567-0.63902-0.42602-0.37868-0.23667 0.28401-0.67453 0.46152-0.95854 0.46152-0.34318 0-0.55619-0.13017-0.78103-0.30768zm-0.41419-0.40235c-0.97037-1.2899 0.29585-1.7277 0.26035-0.85204-0.0118 0.26035-0.10651 0.5917-0.26035 0.85204z"/>
   <g fill="#333">
    <path d="m103.5 100.27c-0.0473 0.46152-0.31952 1.0177-0.6627 1.3846-0.24851 0.28401 0.15384 0.6627 0.40235 0.37868 0.39052-0.42602 0.65086-0.98221 0.7692-1.4911 0.0473 0.0118 0.0947 0.0237 0.13017 0.0355 0.55619 0.13017 1.3136 0.61536 1.065 1.3017-0.17751 0.46152-0.68636 0.27218-0.72187 0.11834-0.0947-0.35501-0.65086-0.21301-0.54435 0.14201 0.20117 0.8047 1.4556 0.79286 1.7869-0.071 0.16567-0.43785 0.0947-1.1005-0.54436-1.6094-0.33135-0.27218-0.82837-0.44968-1.2544-0.48518-0.20117-0.02367-0.40235 0.05916-0.42601 0.29584z"/>
    <path d="m111.28 103.99c-0.0237 0.74553-0.0947 1.4556-0.26035 1.9526-0.11834 0.37868-0.7337 1.7396-1.0177 0.54436-0.142-0.56803 0.23668-1.6804 1.2781-2.4969zm0.35501-3.065c-0.53252-1.8579-3.2898-0.85203-2.7691 0.78104 0.36685 1.1597 1.6449 1.1716 2.3549 0.56802 0.0355 0.37868 0.0473 0.60353 0.0592 1.0295-2.4023 1.4911-2.1774 4.4495-0.84021 4.2128 1.1952-0.21301 1.3846-2.5679 1.3846-3.8815 0.24851-0.13017 0.50886-0.24851 0.79287-0.33135 0.35502-0.11833 0.18934-0.65086-0.17751-0.54435-0.21301 0.0828-0.42601 0.15384-0.61536 0.24851-0.0355-1.0177-0.071-1.7041-0.18934-2.0828zm-2.2366 0.61536c-0.15384-0.48519 0.39051-1.136 0.9467-1.0769 0.40235 0.0355 0.6627 0.24851 0.75737 0.60353 0.26034 0.94671-1.3609 1.5621-1.7041 0.47335z"/>
    <path d="m112.68 101.41c-0.0118-0.36685 0.23668-0.65086 0.60353-0.72186 0.43785-0.0828 0.8757 0.28401 0.8757 0.69819 0 0.42602-0.47335 0.79287-0.91121 0.68636-0.34318-0.0828-0.55619-0.31951-0.56802-0.66269zm1.9171-0.54436c-0.26034-0.50885-0.8402-0.82837-1.4201-0.72186-0.61536 0.11834-1.0769 0.62719-1.0532 1.278 0.0473 1.6804 2.5561 1.5384 2.5916 0 0.52069-0.0118 0.81654-0.1775 1.2781-0.53252 0.28401-0.22484-0.0592-0.66269-0.35502-0.43785-0.37868 0.30768-0.55619 0.41418-1.0414 0.41418z"/>
    <path d="m118.13 101.22c0.0118-0.53252-0.0237-0.85204-0.0237-0.85204-0.0118-0.37868-0.59169-0.30768-0.55619 0.0592 0.071 0.63903 0.1065 1.6094-0.82837 1.6212-0.35501 0.0118-0.49702-0.11834-0.52069-0.43786-0.0118-0.31951-0.0118-0.97037-0.0355-1.1716-0.0237-0.36684-0.56802-0.34318-0.54436 0.0355 0 0.20117 0 0.8402 0.0237 1.1716 0.0828 1.207 1.6686 1.2426 2.2603 0.31951 0.55619 0.67453 1.7396 1.0532 2.6389 0.071 0.26035-0.27218-0.15384-0.63902-0.40235-0.37868-0.8757 0.95854-1.9762 0.0592-2.0118-0.43785z"/>
    <path d="m122.51 100.7c-0.0592-0.13017-0.15384-0.16567-0.28401-0.17751-0.30768-0.0355-0.74554-0.11834-1.0059-0.27218-0.0828-0.0355-0.16567-0.0592-0.27218-0.0237-0.0947 0.0355-0.13017 0.11833-0.16567 0.20117-0.11834 0.37868-0.42602 0.95854-0.67453 1.2307-0.24851 0.28401 0.16567 0.6627 0.40235 0.37868 0.26034-0.27218 0.57986-0.81653 0.71003-1.1597 0.17751 0.0828 0.59169 0.142 0.8047 0.1775 0.0118 0.0237 0.0118 0.0592 0.0237 0.0828 0.18934 0.7692 0.54436 1.5147 1.4319 1.5147 0.53253 0 0.95854-0.26034 1.2781-0.61536 0.24851-0.27218-0.15384-0.63902-0.41419-0.37868-0.24851 0.27218-0.47335 0.46152-0.8047 0.46152-0.8047 0-0.8402-1.0532-1.0295-1.4201z"/>
    <path d="m127.16 102.12c0.0118-1.2426 0.75736-1.3609 0.89937-1.3609 0.30768-0.0118 0.82837 0.47335 0.78103 1.4911-0.0118 0.16568 0.10651 0.28401 0.27218 0.28401 0.13017 0 0.27218-0.071 0.28401-0.24851 0.0237-0.20117 0.0237-0.40235 0.0473-0.59169 0.18934-1.6212 1.3372-0.61536 1.9762-0.0237 0.8757 0.84021 2.1064 1.4437 3.0886 0.36685 0.24851-0.27218-0.15384-0.63902-0.41418-0.37868-0.23668 0.26034-0.52069 0.39052-0.85204 0.39052-1.2781-0.0118-1.8816-1.7988-3.1715-1.7751-0.50885 0.0237-0.79287 0.24851-0.95854 0.56803-0.22484-0.43786-0.61536-0.65087-1.065-0.63903-0.29584 0-0.8402 0.11834-1.1597 0.66269-0.39052-0.67453-1.1952-0.69819-1.7396-0.1775-0.27218 0.26034-0.49702 0.61535-0.8402 0.97037-0.26034 0.26034 0.15384 0.65086 0.40235 0.37868 0.40235-0.41418 0.8402-1.1597 1.3017-1.1597 0.46152-0.0118 0.60353 0.68636 0.59169 1.2426-0.0118 0.20118 0.0237 0.41418 0.28402 0.41418 0.27218 0 0.27218-0.213 0.27218-0.41418z"/>
    <path d="m134.64 101.81c0.17751-0.27218 0.39052-0.71003 0.41418-1.2307 0.0473-1.3372-1.7514-1.3846-1.7277-0.0947 0.0118 1.136 1.0769 2.1656 2.2011 2.1656 0.52069 0 0.95854-0.26034 1.278-0.61536 0.24851-0.27218-0.15384-0.63902-0.40235-0.37868-0.24851 0.28401-0.54435 0.43785-0.8757 0.43785s-0.63903-0.11834-0.88754-0.28401zm-0.40235-0.40235c-0.98221-1.2899 0.28401-1.7277 0.24851-0.85204 0 0.26035-0.0947 0.5917-0.23668 0.85204z"/>
    <path d="m135.45 97.813c-0.37868-0.01183-0.37868 0.55619 0 0.55619h0.89937v1.8579c0 0.53252-0.0237 1.2189 0.0237 1.4792 0.24851 1.136 1.5976 1.2544 2.4378 0.33134 0.26035-0.27218-0.15384-0.63902-0.40235-0.37868-0.59169 0.63903-1.5266 0.59169-1.4911-0.46152 0-0.0947-0.0118-1.5502-0.0237-2.7928v-0.02367h1.7869c0.36685 0.01183 0.37868-0.54436 0.0118-0.54436l-1.7988-0.02367v-1.2544c0-0.36685-0.56802-0.36685-0.56802 0l0.0118 1.2544z"/>
    <path d="m139.03 100.27c-0.0473 0.46152-0.31951 1.0177-0.66269 1.3846-0.24851 0.28401 0.15384 0.6627 0.40235 0.37868 0.39051-0.42602 0.65086-0.98221 0.7692-1.4911 0.0473 0.0118 0.0947 0.0237 0.13017 0.0355 0.55619 0.13017 1.3136 0.61536 1.065 1.3017-0.17751 0.46152-0.68637 0.27218-0.72187 0.11834-0.0947-0.35501-0.65086-0.21301-0.54436 0.14201 0.20118 0.8047 1.4556 0.79286 1.7869-0.071 0.16568-0.43785 0.0947-1.1005-0.54435-1.6094-0.33135-0.27218-0.82837-0.44968-1.2544-0.48518-0.20117-0.02367-0.40235 0.05916-0.42602 0.29584z"/>
   </g>
  </g>
  <text x="98.114525" y="102.1209" fill="#000000" font-family="MasanaScript" font-size="10.583px" letter-spacing="0px" stroke-width=".26458" word-spacing="0px" style="line-height:6.61458302px" xml:space="preserve"><tspan x="98.114525" y="106.30661" stroke-width=".26458"/></text>
 </g>
</svg>
