<?xml version="1.0" encoding="UTF-8"?>
<!-- Created with Inkscape (http://www.inkscape.org/) -->
<svg width="108.11mm" height="27.63mm" version="1.1" viewBox="0 0 108.11 27.63" xmlns="http://www.w3.org/2000/svg" xmlns:cc="http://creativecommons.org/ns#" xmlns:dc="http://purl.org/dc/elements/1.1/" xmlns:rdf="http://www.w3.org/1999/02/22-rdf-syntax-ns#">
 <metadata>
  <rdf:RDF>
   <cc:Work rdf:about="">
    <dc:format>image/svg+xml</dc:format>
    <dc:type rdf:resource="http://purl.org/dc/dcmitype/StillImage"/>
    <dc:title/>
   </cc:Work>
  </rdf:RDF>
 </metadata>
 <g transform="translate(-28.345 -60.935)" fill-opacity=".87843">
  <g fill="#333">
   <path d="m38.598 88.565q1.7363 0 5.2365-0.67524 1.5158-0.30317 2.0257-1.006 0.52366-0.7028 0.52366-2.3702v-5.0574q0-1.0473-0.35829-1.5572-0.34451-0.50987-1.2265-0.50987-0.46853 0-2.6321 0-2.1635-0.01378-2.6458-0.01378-0.68902 0-1.0749 0.41341-0.37207 0.41341-0.37207 1.006 0 0.67524 0.42719 1.0611 0.44097 0.38585 1.1713 0.38585h2.4667v4.4924q-1.6674 0.41341-3.3349 0.41341-5.8291 0-5.8291-6.9315 0-3.39 1.4607-5.2641 1.4607-1.8741 4.4648-1.8741 2.3013 0 4.7129 0.93707 0.30317 0.17914 0.6339 0.17914 0.6339 0 1.0611-0.50987t0.42719-1.1576q0-0.92329-0.88194-1.4469-1.1851-0.64768-2.825-1.006-1.6399-0.37207-3.3486-0.37207-2.5632 0-4.5751 0.81304-1.9982 0.81304-3.2522 2.26-1.2402 1.4332-1.8741 3.3073-0.6339 1.8604-0.6339 4.0514 0 5.1125 2.7285 7.7721 2.7285 2.6596 7.5241 2.6596z"/>
   <path d="m58.883 85.258q-2.6321 0-3.8723-1.7639-1.2265-1.7639-1.2265-5.3606 0-3.5829 1.2265-5.3468 1.2265-1.7777 3.8723-1.7777 2.6458 0 3.8723 1.7777 1.2265 1.7639 1.2265 5.3468 0 3.5967-1.2402 5.3606-1.2265 1.7639-3.8585 1.7639zm0 3.3073q4.7267 0 7.2347-2.7147 2.508-2.7285 2.508-7.717t-2.508-7.7032q-2.508-2.7285-7.2347-2.7285t-7.2347 2.7285q-2.508 2.7147-2.508 7.7032t2.508 7.717q2.508 2.7147 7.2347 2.7147z"/>
   <path d="m76.99 67.067q0.67524 0 1.4883-0.96463l1.9844-2.6183 2.0257 2.6872q0.60634 0.86816 1.4056 0.86816 0.42719 0 0.73036-0.27561 0.31695-0.27561 0.31695-0.68902 0-0.44097-0.48231-1.0886l-2.4667-3.197q-0.67524-0.85438-1.5296-0.85438-0.8406 0-1.5434 0.85438l-2.5494 3.2935q-0.45475 0.62012-0.45475 1.0197 0 0.42719 0.31695 0.7028 0.31695 0.26183 0.75792 0.26183zm3.5278 21.497q1.8052 0 3.3211-0.45475 1.5158-0.45475 2.6458-1.3367 1.1438-0.88194 1.7777-2.2738 0.64768-1.4056 0.64768-3.1695v-10.845q0-1.006-0.64768-1.6536-0.64768-0.66146-1.5572-0.66146t-1.571 0.66146q-0.64768 0.64768-0.64768 1.6536v10.749q0 1.0197-0.34451 1.819-0.33073 0.79926-0.9095 1.2678-0.565 0.46853-1.254 0.7028-0.68902 0.23427-1.4607 0.23427-1.6261 0-2.7836-1.0197t-1.1576-3.0041v-10.749q-0.01378-1.006-0.67524-1.6536-0.64768-0.66146-1.5572-0.66146t-1.5572 0.66146q-0.64768 0.64768-0.64768 1.6536v10.845q0 1.7777 0.6339 3.1833 0.64768 1.3918 1.7777 2.2738 1.1438 0.86816 2.6596 1.3229 1.5158 0.45475 3.3073 0.45475z"/>
   <path d="m99.342 88.151q0.9095 0 1.5572-0.66146 0.66146-0.66146 0.66146-1.6674v-14.249h4.1617q0.73036 0 1.2127-0.49609 0.48231-0.50987 0.48231-1.1851t-0.48231-1.1713q-0.48232-0.50987-1.2127-0.50987h-12.788q-0.73036 0-1.2265 0.50987-0.48231 0.49609-0.48231 1.1713t0.48231 1.1851q0.49609 0.49609 1.2265 0.49609h4.203v14.249q0 1.006 0.64768 1.6674 0.66146 0.66146 1.5572 0.66146z"/>
   <path d="m118.11 88.565q1.8052 0 3.3211-0.45475 1.5158-0.45475 2.6458-1.3367 1.1438-0.88194 1.7777-2.2738 0.64768-1.4056 0.64768-3.1695v-10.845q0-1.006-0.64768-1.6536-0.64768-0.66146-1.5572-0.66146-0.9095 0-1.571 0.66146-0.64768 0.64768-0.64768 1.6536v10.749q0 1.0197-0.34451 1.819-0.33073 0.79926-0.9095 1.2678-0.565 0.46853-1.254 0.7028-0.68902 0.23427-1.4607 0.23427-1.6261 0-2.7836-1.0197-1.1576-1.0197-1.1576-3.0041v-10.749q-0.0138-1.006-0.67523-1.6536-0.64768-0.66146-1.5572-0.66146-0.9095 0-1.5572 0.66146-0.64768 0.64768-0.64768 1.6536v10.845q0 1.7777 0.6339 3.1833 0.64768 1.3918 1.7777 2.2738 1.1438 0.86816 2.6596 1.3229 1.5158 0.45475 3.3073 0.45475z"/>
  </g>
  <path d="m132.97 80.558q0.0551 0.55122 0.38585 0.86816 0.34451 0.30317 0.7717 0.30317 0.44097 0 0.7717-0.30317 0.33073-0.30317 0.39963-0.86816l1.1438-11.038q0.0138-0.12402 0.0138-0.26183 0-0.89572-0.68902-1.4056-0.68901-0.50988-1.6261-0.50988t-1.6261 0.50988q-0.68901 0.50987-0.68901 1.4056 0 0.1378 0.0138 0.26183zm1.2127 7.6757q0.90951 0 1.5158-0.60634 0.60634-0.62012 0.60634-1.4745 0-0.89572-0.62012-1.4745-0.62012-0.59256-1.5021-0.59256-0.92329 0-1.5296 0.62012-0.59256 0.60634-0.59256 1.4469 0 0.88194 0.60634 1.4883 0.62012 0.59256 1.5158 0.59256z" fill="#d45500"/>
 </g>
</svg>
